<?xml version="1.0" encoding="UTF-8"?>
<svg xmlns="http://www.w3.org/2000/svg" xmlns:xlink="http://www.w3.org/1999/xlink" width="150px" height="32px" viewBox="0 0 149 32" version="1.1">
<defs>
<clipPath id="clip1">
  <path d="M 35.453125 1.875 L 148.765625 1.875 L 148.765625 17.050781 L 35.453125 17.050781 Z M 35.453125 1.875 "/>
</clipPath>
<clipPath id="clip2">
  <path d="M 35.453125 20.628906 L 148.765625 20.628906 L 148.765625 29.992188 L 35.453125 29.992188 Z M 35.453125 20.628906 "/>
</clipPath>
<clipPath id="clip3">
  <path d="M 0.0507812 0 L 31.875 0 L 31.875 31.863281 L 0.0507812 31.863281 Z M 0.0507812 0 "/>
</clipPath>
<clipPath id="clip4">
  <path d="M 6.46875 21 L 11 21 L 11 25.488281 L 6.46875 25.488281 Z M 6.46875 21 "/>
</clipPath>
<clipPath id="clip5">
  <path d="M 8 6.371094 L 25.457031 6.371094 L 25.457031 24 L 8 24 Z M 8 6.371094 "/>
</clipPath>
</defs>
<g id="surface1">
<g clip-path="url(#clip1)" clip-rule="nonzero">
<path style=" stroke:none;fill-rule:nonzero;fill:rgb(97.254902%,98.039216%,98.823529%);fill-opacity:1;" d="M 39.75 15.59375 C 40.160156 15.59375 40.539062 15.542969 40.890625 15.433594 C 41.238281 15.324219 41.539062 15.167969 41.785156 14.96875 C 42.035156 14.761719 42.230469 14.519531 42.371094 14.238281 C 42.511719 13.960938 42.582031 13.648438 42.582031 13.304688 C 42.582031 12.902344 42.484375 12.558594 42.292969 12.277344 C 42.105469 11.996094 41.855469 11.75 41.546875 11.539062 C 41.238281 11.324219 40.886719 11.136719 40.488281 10.96875 C 40.089844 10.804688 39.683594 10.636719 39.269531 10.464844 C 38.859375 10.292969 38.457031 10.109375 38.058594 9.910156 C 37.660156 9.710938 37.304688 9.46875 36.996094 9.179688 C 36.6875 8.890625 36.441406 8.554688 36.25 8.164062 C 36.058594 7.773438 35.964844 7.300781 35.964844 6.746094 C 35.964844 6.160156 36.078125 5.632812 36.300781 5.164062 C 36.523438 4.699219 36.835938 4.300781 37.238281 3.972656 C 37.640625 3.644531 38.117188 3.398438 38.667969 3.226562 C 39.222656 3.054688 39.828125 2.96875 40.488281 2.96875 C 40.890625 2.96875 41.398438 3.007812 42.011719 3.085938 C 42.621094 3.164062 43.269531 3.304688 43.957031 3.507812 L 43.644531 5.136719 L 43.457031 5.230469 C 43.117188 5.074219 42.78125 4.945312 42.457031 4.839844 C 42.132812 4.730469 41.828125 4.648438 41.542969 4.585938 C 41.253906 4.523438 40.992188 4.480469 40.746094 4.457031 C 40.503906 4.429688 40.292969 4.417969 40.113281 4.417969 C 39.746094 4.417969 39.414062 4.460938 39.117188 4.550781 C 38.820312 4.644531 38.570312 4.773438 38.359375 4.945312 C 38.152344 5.117188 37.992188 5.324219 37.875 5.570312 C 37.757812 5.820312 37.703125 6.097656 37.703125 6.410156 C 37.703125 6.828125 37.796875 7.183594 37.988281 7.476562 C 38.175781 7.769531 38.429688 8.027344 38.742188 8.253906 C 39.058594 8.476562 39.417969 8.675781 39.8125 8.851562 C 40.210938 9.027344 40.617188 9.203125 41.035156 9.375 C 41.449219 9.550781 41.855469 9.738281 42.253906 9.9375 C 42.648438 10.136719 43.007812 10.367188 43.324219 10.632812 C 43.636719 10.898438 43.890625 11.214844 44.082031 11.574219 C 44.269531 11.9375 44.363281 12.367188 44.363281 12.875 C 44.363281 13.429688 44.246094 13.957031 44.003906 14.460938 C 43.765625 14.960938 43.429688 15.402344 42.996094 15.789062 C 42.5625 16.171875 42.042969 16.480469 41.4375 16.707031 C 40.828125 16.933594 40.15625 17.046875 39.417969 17.046875 C 39.109375 17.046875 38.785156 17.027344 38.445312 16.984375 C 38.105469 16.9375 37.765625 16.878906 37.421875 16.796875 C 37.082031 16.722656 36.742188 16.628906 36.40625 16.515625 C 36.078125 16.402344 35.761719 16.277344 35.457031 16.140625 L 35.777344 14.503906 L 35.964844 14.40625 C 36.597656 14.777344 37.242188 15.066406 37.894531 15.277344 C 38.542969 15.488281 39.164062 15.59375 39.75 15.59375 Z M 47.390625 16.859375 L 47.390625 6.941406 L 48.773438 6.941406 L 49.054688 8.664062 C 49.265625 8.464844 49.511719 8.253906 49.789062 8.027344 C 50.066406 7.800781 50.363281 7.597656 50.675781 7.410156 C 50.988281 7.222656 51.316406 7.066406 51.65625 6.941406 C 51.996094 6.816406 52.335938 6.753906 52.679688 6.753906 C 52.960938 6.753906 53.234375 6.800781 53.511719 6.898438 C 53.785156 6.992188 54.039062 7.121094 54.273438 7.289062 C 54.503906 7.457031 54.714844 7.660156 54.898438 7.902344 C 55.082031 8.140625 55.226562 8.40625 55.332031 8.703125 C 55.5625 8.496094 55.816406 8.28125 56.089844 8.050781 C 56.363281 7.824219 56.65625 7.613281 56.964844 7.421875 C 57.273438 7.226562 57.601562 7.066406 57.953125 6.941406 C 58.296875 6.816406 58.664062 6.753906 59.054688 6.753906 C 59.507812 6.753906 59.917969 6.84375 60.28125 7.023438 C 60.644531 7.199219 60.953125 7.449219 61.210938 7.765625 C 61.46875 8.082031 61.664062 8.460938 61.796875 8.894531 C 61.9375 9.328125 62.003906 9.800781 62.003906 10.3125 L 62.003906 16.859375 L 60.230469 16.859375 L 60.230469 10.460938 C 60.230469 10.125 60.183594 9.820312 60.09375 9.546875 C 60.003906 9.277344 59.875 9.046875 59.707031 8.851562 C 59.539062 8.65625 59.335938 8.507812 59.097656 8.40625 C 58.855469 8.304688 58.585938 8.253906 58.285156 8.253906 C 58.027344 8.253906 57.789062 8.289062 57.5625 8.363281 C 57.335938 8.4375 57.109375 8.542969 56.886719 8.679688 C 56.667969 8.8125 56.449219 8.972656 56.226562 9.160156 C 56.003906 9.347656 55.777344 9.550781 55.546875 9.765625 C 55.5625 9.855469 55.566406 9.945312 55.570312 10.027344 C 55.574219 10.113281 55.574219 10.207031 55.574219 10.3125 L 55.574219 16.859375 L 53.800781 16.859375 L 53.800781 10.460938 C 53.800781 10.125 53.753906 9.820312 53.660156 9.546875 C 53.566406 9.277344 53.433594 9.046875 53.261719 8.851562 C 53.09375 8.65625 52.886719 8.507812 52.644531 8.40625 C 52.402344 8.304688 52.132812 8.253906 51.839844 8.253906 C 51.589844 8.253906 51.351562 8.289062 51.128906 8.363281 C 50.902344 8.4375 50.683594 8.542969 50.46875 8.679688 C 50.253906 8.8125 50.039062 8.972656 49.828125 9.15625 C 49.613281 9.339844 49.390625 9.539062 49.167969 9.75 L 49.167969 16.859375 Z M 70.710938 15.382812 C 70.554688 15.515625 70.367188 15.675781 70.148438 15.863281 C 69.925781 16.054688 69.675781 16.234375 69.398438 16.410156 C 69.125 16.585938 68.820312 16.734375 68.492188 16.859375 C 68.164062 16.984375 67.816406 17.046875 67.449219 17.046875 C 67.121094 17.046875 66.800781 16.992188 66.484375 16.875 C 66.167969 16.757812 65.890625 16.585938 65.648438 16.359375 C 65.40625 16.128906 65.210938 15.847656 65.0625 15.511719 C 64.917969 15.175781 64.84375 14.789062 64.84375 14.355469 C 64.84375 14.085938 64.878906 13.8125 64.945312 13.539062 C 65.007812 13.265625 65.117188 13 65.273438 12.75 C 65.429688 12.496094 65.632812 12.257812 65.886719 12.035156 C 66.136719 11.816406 66.449219 11.625 66.820312 11.457031 C 67.191406 11.289062 67.628906 11.160156 68.132812 11.070312 C 68.636719 10.976562 69.21875 10.929688 69.875 10.929688 L 70.710938 10.929688 L 70.710938 10.070312 C 70.710938 9.78125 70.660156 9.523438 70.5625 9.292969 C 70.460938 9.0625 70.324219 8.863281 70.148438 8.699219 C 69.96875 8.53125 69.757812 8.402344 69.511719 8.316406 C 69.265625 8.222656 68.992188 8.175781 68.695312 8.175781 C 68.46875 8.175781 68.230469 8.203125 67.980469 8.253906 C 67.726562 8.300781 67.472656 8.375 67.222656 8.46875 C 66.972656 8.5625 66.730469 8.671875 66.496094 8.796875 C 66.269531 8.921875 66.066406 9.058594 65.890625 9.207031 L 65.722656 9.117188 L 65.347656 7.746094 C 65.710938 7.546875 66.058594 7.386719 66.394531 7.257812 C 66.730469 7.128906 67.054688 7.027344 67.363281 6.953125 C 67.671875 6.878906 67.964844 6.824219 68.246094 6.796875 C 68.527344 6.769531 68.796875 6.753906 69.050781 6.753906 C 70.214844 6.753906 71.078125 6.996094 71.640625 7.480469 C 72.207031 7.964844 72.488281 8.691406 72.488281 9.65625 L 72.488281 14.542969 C 72.488281 14.621094 72.492188 14.71875 72.507812 14.832031 C 72.519531 14.949219 72.546875 15.0625 72.59375 15.167969 C 72.644531 15.273438 72.710938 15.363281 72.800781 15.4375 C 72.890625 15.511719 73.011719 15.550781 73.167969 15.550781 C 73.257812 15.550781 73.375 15.535156 73.515625 15.507812 C 73.660156 15.480469 73.800781 15.429688 73.945312 15.363281 L 73.945312 16.355469 C 73.648438 16.5625 73.347656 16.730469 73.042969 16.855469 C 72.742188 16.984375 72.449219 17.046875 72.167969 17.046875 C 71.914062 17.046875 71.703125 16.996094 71.539062 16.894531 C 71.375 16.789062 71.238281 16.65625 71.128906 16.496094 C 71.019531 16.332031 70.933594 16.152344 70.871094 15.957031 C 70.808594 15.757812 70.753906 15.566406 70.710938 15.382812 Z M 70.710938 14.183594 L 70.710938 12.011719 L 70.003906 12.011719 C 69.273438 12.011719 68.691406 12.066406 68.257812 12.167969 C 67.828125 12.273438 67.496094 12.410156 67.269531 12.578125 C 67.042969 12.75 66.890625 12.949219 66.820312 13.171875 C 66.746094 13.398438 66.710938 13.632812 66.710938 13.875 C 66.710938 14.136719 66.75 14.371094 66.828125 14.578125 C 66.902344 14.78125 67.003906 14.960938 67.136719 15.105469 C 67.273438 15.253906 67.433594 15.363281 67.617188 15.4375 C 67.804688 15.511719 68.007812 15.550781 68.226562 15.550781 C 68.394531 15.550781 68.566406 15.527344 68.746094 15.488281 C 68.921875 15.449219 69.113281 15.375 69.316406 15.273438 C 69.519531 15.171875 69.734375 15.035156 69.960938 14.859375 C 70.1875 14.683594 70.4375 14.457031 70.710938 14.183594 Z M 76.105469 16.859375 L 76.105469 6.941406 L 77.484375 6.941406 L 77.765625 9.917969 C 77.847656 9.761719 77.933594 9.601562 78.023438 9.4375 C 78.113281 9.273438 78.203125 9.109375 78.292969 8.953125 C 78.386719 8.800781 78.472656 8.652344 78.5625 8.515625 C 78.648438 8.378906 78.726562 8.261719 78.792969 8.15625 C 78.933594 7.964844 79.085938 7.785156 79.257812 7.613281 C 79.429688 7.441406 79.613281 7.292969 79.8125 7.160156 C 80.011719 7.035156 80.222656 6.933594 80.449219 6.863281 C 80.671875 6.789062 80.914062 6.753906 81.167969 6.753906 C 81.347656 6.753906 81.519531 6.777344 81.679688 6.816406 C 81.84375 6.855469 81.976562 6.925781 82.082031 7.019531 L 81.894531 8.683594 C 81.78125 8.652344 81.671875 8.632812 81.566406 8.621094 C 81.457031 8.613281 81.347656 8.609375 81.242188 8.609375 C 80.800781 8.609375 80.414062 8.679688 80.089844 8.824219 C 79.761719 8.96875 79.46875 9.160156 79.207031 9.40625 C 78.949219 9.65625 78.71875 9.945312 78.507812 10.273438 C 78.300781 10.605469 78.089844 10.960938 77.878906 11.34375 L 77.878906 16.859375 Z M 85.34375 14.375 L 85.34375 8.363281 L 83.34375 8.363281 L 83.496094 7.449219 C 83.980469 7.347656 84.367188 7.222656 84.660156 7.070312 C 84.957031 6.917969 85.195312 6.722656 85.386719 6.496094 C 85.574219 6.265625 85.730469 5.984375 85.859375 5.65625 C 85.988281 5.328125 86.136719 4.9375 86.296875 4.484375 L 87.117188 4.484375 L 87.117188 6.941406 L 90.703125 6.941406 L 90.332031 8.363281 L 87.117188 8.363281 L 87.117188 13.90625 C 87.117188 14.203125 87.164062 14.457031 87.253906 14.664062 C 87.34375 14.875 87.472656 15.046875 87.632812 15.179688 C 87.796875 15.308594 87.992188 15.402344 88.222656 15.460938 C 88.449219 15.519531 88.707031 15.550781 88.988281 15.550781 C 89.273438 15.550781 89.558594 15.523438 89.84375 15.46875 C 90.128906 15.417969 90.394531 15.34375 90.652344 15.25 L 90.652344 16.261719 C 90.257812 16.519531 89.84375 16.710938 89.410156 16.84375 C 88.980469 16.980469 88.539062 17.046875 88.089844 17.046875 C 87.671875 17.046875 87.296875 16.988281 86.957031 16.867188 C 86.625 16.75 86.335938 16.578125 86.097656 16.355469 C 85.855469 16.128906 85.671875 15.851562 85.539062 15.519531 C 85.40625 15.183594 85.34375 14.800781 85.34375 14.375 Z M 98.46875 14.375 L 98.46875 8.363281 L 96.46875 8.363281 L 96.617188 7.449219 C 97.105469 7.347656 97.496094 7.222656 97.785156 7.070312 C 98.078125 6.917969 98.320312 6.722656 98.511719 6.496094 C 98.703125 6.265625 98.859375 5.984375 98.988281 5.65625 C 99.113281 5.328125 99.261719 4.9375 99.421875 4.484375 L 100.246094 4.484375 L 100.246094 6.941406 L 103.832031 6.941406 L 103.457031 8.363281 L 100.246094 8.363281 L 100.246094 13.90625 C 100.246094 14.203125 100.289062 14.457031 100.378906 14.664062 C 100.46875 14.875 100.597656 15.046875 100.757812 15.179688 C 100.921875 15.308594 101.117188 15.402344 101.347656 15.460938 C 101.578125 15.519531 101.832031 15.550781 102.113281 15.550781 C 102.398438 15.550781 102.683594 15.523438 102.96875 15.46875 C 103.25 15.417969 103.519531 15.34375 103.773438 15.25 L 103.773438 16.261719 C 103.382812 16.519531 102.972656 16.710938 102.539062 16.84375 C 102.105469 16.980469 101.664062 17.046875 101.214844 17.046875 C 100.796875 17.046875 100.421875 16.988281 100.085938 16.867188 C 99.75 16.75 99.460938 16.578125 99.21875 16.355469 C 98.980469 16.128906 98.796875 15.851562 98.664062 15.519531 C 98.535156 15.183594 98.46875 14.800781 98.46875 14.375 Z M 110.289062 17.046875 C 109.554688 17.046875 108.898438 16.917969 108.324219 16.652344 C 107.75 16.394531 107.265625 16.039062 106.871094 15.59375 C 106.476562 15.152344 106.175781 14.636719 105.96875 14.046875 C 105.757812 13.460938 105.652344 12.835938 105.652344 12.179688 C 105.652344 11.433594 105.785156 10.730469 106.050781 10.074219 C 106.316406 9.414062 106.683594 8.839844 107.15625 8.34375 C 107.625 7.851562 108.183594 7.464844 108.832031 7.179688 C 109.480469 6.898438 110.183594 6.753906 110.945312 6.753906 C 111.683594 6.753906 112.34375 6.886719 112.921875 7.152344 C 113.5 7.417969 113.988281 7.777344 114.382812 8.226562 C 114.78125 8.671875 115.082031 9.191406 115.289062 9.78125 C 115.492188 10.371094 115.597656 10.992188 115.597656 11.640625 C 115.597656 12.394531 115.464844 13.101562 115.195312 13.761719 C 114.925781 14.417969 114.554688 14.988281 114.082031 15.476562 C 113.605469 15.960938 113.046875 16.34375 112.402344 16.625 C 111.753906 16.90625 111.050781 17.046875 110.289062 17.046875 Z M 110.679688 15.625 C 111.136719 15.625 111.550781 15.535156 111.917969 15.351562 C 112.289062 15.167969 112.605469 14.914062 112.871094 14.59375 C 113.136719 14.277344 113.34375 13.902344 113.488281 13.46875 C 113.632812 13.035156 113.707031 12.566406 113.707031 12.070312 C 113.707031 11.578125 113.636719 11.097656 113.492188 10.632812 C 113.347656 10.167969 113.144531 9.753906 112.871094 9.390625 C 112.601562 9.027344 112.269531 8.734375 111.878906 8.511719 C 111.484375 8.289062 111.042969 8.175781 110.550781 8.175781 C 110.09375 8.175781 109.683594 8.269531 109.3125 8.453125 C 108.941406 8.636719 108.621094 8.890625 108.359375 9.210938 C 108.09375 9.535156 107.890625 9.914062 107.742188 10.347656 C 107.597656 10.785156 107.523438 11.253906 107.523438 11.753906 C 107.523438 12.246094 107.59375 12.722656 107.734375 13.1875 C 107.878906 13.652344 108.085938 14.066406 108.359375 14.425781 C 108.628906 14.789062 108.960938 15.078125 109.347656 15.296875 C 109.738281 15.515625 110.183594 15.625 110.679688 15.625 Z M 125.160156 14.035156 L 125.160156 8.644531 C 124.703125 8.445312 124.289062 8.316406 123.921875 8.261719 C 123.554688 8.203125 123.25 8.175781 123.015625 8.175781 C 122.457031 8.175781 121.964844 8.269531 121.535156 8.453125 C 121.101562 8.636719 120.734375 8.894531 120.433594 9.226562 C 120.136719 9.554688 119.910156 9.953125 119.753906 10.414062 C 119.597656 10.878906 119.519531 11.386719 119.519531 11.941406 C 119.519531 12.425781 119.585938 12.886719 119.714844 13.324219 C 119.84375 13.761719 120.03125 14.144531 120.273438 14.472656 C 120.519531 14.804688 120.8125 15.066406 121.15625 15.261719 C 121.496094 15.453125 121.878906 15.550781 122.304688 15.550781 C 122.808594 15.550781 123.300781 15.414062 123.777344 15.144531 C 124.25 14.871094 124.710938 14.503906 125.160156 14.035156 Z M 125.160156 7 L 125.160156 1.875 L 126.9375 1.875 L 126.9375 16.859375 L 125.554688 16.859375 L 125.277344 15.140625 C 125.066406 15.339844 124.828125 15.550781 124.566406 15.773438 C 124.300781 15.992188 124.011719 16.195312 123.695312 16.390625 C 123.378906 16.578125 123.03125 16.734375 122.664062 16.859375 C 122.292969 16.984375 121.898438 17.046875 121.480469 17.046875 C 120.882812 17.046875 120.347656 16.914062 119.871094 16.648438 C 119.402344 16.382812 119 16.03125 118.667969 15.589844 C 118.335938 15.152344 118.085938 14.648438 117.914062 14.082031 C 117.738281 13.515625 117.648438 12.925781 117.648438 12.3125 C 117.648438 11.507812 117.792969 10.765625 118.085938 10.085938 C 118.375 9.40625 118.769531 8.820312 119.277344 8.328125 C 119.78125 7.835938 120.371094 7.453125 121.050781 7.171875 C 121.730469 6.894531 122.457031 6.753906 123.238281 6.753906 C 123.613281 6.753906 123.960938 6.78125 124.289062 6.835938 C 124.617188 6.890625 124.90625 6.945312 125.160156 7 Z M 134.242188 17.046875 C 133.507812 17.046875 132.855469 16.917969 132.28125 16.652344 C 131.707031 16.394531 131.226562 16.039062 130.828125 15.59375 C 130.433594 15.152344 130.132812 14.636719 129.921875 14.046875 C 129.714844 13.460938 129.609375 12.835938 129.609375 12.179688 C 129.609375 11.433594 129.742188 10.730469 130.007812 10.074219 C 130.273438 9.414062 130.640625 8.839844 131.109375 8.34375 C 131.578125 7.851562 132.136719 7.464844 132.785156 7.179688 C 133.433594 6.898438 134.136719 6.753906 134.898438 6.753906 C 135.636719 6.753906 136.300781 6.886719 136.878906 7.152344 C 137.460938 7.417969 137.949219 7.777344 138.34375 8.226562 C 138.738281 8.671875 139.039062 9.191406 139.242188 9.78125 C 139.449219 10.371094 139.550781 10.992188 139.550781 11.640625 C 139.550781 12.394531 139.417969 13.101562 139.148438 13.761719 C 138.882812 14.417969 138.511719 14.988281 138.035156 15.476562 C 137.566406 15.960938 137.003906 16.34375 136.355469 16.625 C 135.707031 16.90625 135.003906 17.046875 134.242188 17.046875 Z M 134.636719 15.625 C 135.09375 15.625 135.503906 15.535156 135.875 15.351562 C 136.246094 15.167969 136.5625 14.914062 136.828125 14.59375 C 137.09375 14.277344 137.296875 13.902344 137.445312 13.46875 C 137.589844 13.035156 137.664062 12.566406 137.664062 12.070312 C 137.664062 11.578125 137.59375 11.097656 137.445312 10.632812 C 137.304688 10.167969 137.097656 9.753906 136.828125 9.390625 C 136.558594 9.027344 136.226562 8.734375 135.832031 8.511719 C 135.4375 8.289062 134.996094 8.175781 134.503906 8.175781 C 134.050781 8.175781 133.636719 8.269531 133.269531 8.453125 C 132.898438 8.636719 132.582031 8.890625 132.316406 9.210938 C 132.050781 9.535156 131.84375 9.914062 131.699219 10.347656 C 131.550781 10.785156 131.476562 11.253906 131.476562 11.753906 C 131.476562 12.246094 131.550781 12.722656 131.695312 13.1875 C 131.835938 13.652344 132.042969 14.066406 132.316406 14.425781 C 132.585938 14.789062 132.914062 15.078125 133.304688 15.296875 C 133.695312 15.515625 134.136719 15.625 134.636719 15.625 Z M 141.605469 16.410156 L 141.980469 14.914062 L 142.148438 14.800781 C 142.382812 14.933594 142.632812 15.050781 142.898438 15.152344 C 143.15625 15.253906 143.414062 15.34375 143.671875 15.410156 C 143.925781 15.476562 144.175781 15.53125 144.425781 15.570312 C 144.667969 15.605469 144.898438 15.625 145.109375 15.625 C 145.402344 15.625 145.671875 15.589844 145.914062 15.523438 C 146.15625 15.453125 146.363281 15.355469 146.53125 15.230469 C 146.707031 15.105469 146.839844 14.957031 146.933594 14.78125 C 147.03125 14.609375 147.082031 14.417969 147.082031 14.203125 C 147.082031 13.9375 147.007812 13.710938 146.859375 13.535156 C 146.707031 13.355469 146.511719 13.203125 146.269531 13.074219 C 146.027344 12.945312 145.75 12.835938 145.4375 12.746094 C 145.128906 12.648438 144.808594 12.554688 144.484375 12.453125 C 144.160156 12.355469 143.84375 12.242188 143.53125 12.117188 C 143.222656 11.992188 142.941406 11.832031 142.699219 11.644531 C 142.457031 11.453125 142.257812 11.222656 142.109375 10.953125 C 141.960938 10.679688 141.886719 10.347656 141.886719 9.953125 C 141.886719 9.519531 141.984375 9.105469 142.175781 8.71875 C 142.367188 8.328125 142.640625 7.988281 142.988281 7.699219 C 143.339844 7.40625 143.757812 7.175781 144.246094 7.007812 C 144.734375 6.839844 145.277344 6.753906 145.875 6.753906 C 146.019531 6.753906 146.191406 6.761719 146.390625 6.773438 C 146.589844 6.789062 146.800781 6.808594 147.027344 6.835938 C 147.25 6.863281 147.480469 6.902344 147.710938 6.945312 C 147.945312 6.996094 148.171875 7.054688 148.390625 7.121094 L 148.015625 8.578125 L 147.792969 8.714844 C 147.617188 8.617188 147.425781 8.535156 147.21875 8.46875 C 147.007812 8.398438 146.796875 8.34375 146.582031 8.304688 C 146.367188 8.261719 146.15625 8.230469 145.953125 8.210938 C 145.746094 8.1875 145.5625 8.175781 145.40625 8.175781 C 145.121094 8.175781 144.863281 8.207031 144.628906 8.273438 C 144.394531 8.332031 144.195312 8.421875 144.027344 8.535156 C 143.859375 8.65625 143.726562 8.796875 143.632812 8.957031 C 143.539062 9.125 143.496094 9.3125 143.496094 9.527344 C 143.496094 9.800781 143.566406 10.027344 143.714844 10.207031 C 143.867188 10.390625 144.066406 10.542969 144.316406 10.671875 C 144.566406 10.800781 144.847656 10.910156 145.164062 11.003906 C 145.476562 11.097656 145.796875 11.191406 146.128906 11.292969 C 146.460938 11.390625 146.78125 11.503906 147.09375 11.628906 C 147.410156 11.753906 147.691406 11.914062 147.941406 12.109375 C 148.191406 12.300781 148.390625 12.535156 148.539062 12.8125 C 148.6875 13.09375 148.765625 13.429688 148.765625 13.828125 C 148.765625 14.296875 148.660156 14.726562 148.449219 15.121094 C 148.242188 15.515625 147.953125 15.855469 147.589844 16.140625 C 147.226562 16.425781 146.800781 16.648438 146.3125 16.808594 C 145.820312 16.96875 145.296875 17.046875 144.738281 17.046875 C 144.257812 17.046875 143.746094 16.992188 143.199219 16.878906 C 142.652344 16.765625 142.121094 16.609375 141.605469 16.410156 Z M 141.605469 16.410156 "/>
</g>
<g clip-path="url(#clip2)" clip-rule="nonzero">
<path style=" stroke:none;fill-rule:nonzero;fill:rgb(97.254902%,98.039216%,98.823529%);fill-opacity:1;" d="M 37.957031 28.097656 C 37.453125 28.105469 37.015625 28.027344 36.644531 27.859375 C 36.273438 27.695312 35.917969 27.445312 35.578125 27.113281 C 35.546875 27.085938 35.519531 27.054688 35.496094 27.015625 C 35.472656 26.972656 35.460938 26.925781 35.460938 26.875 C 35.460938 26.796875 35.492188 26.722656 35.554688 26.65625 C 35.617188 26.589844 35.6875 26.554688 35.769531 26.554688 C 35.847656 26.554688 35.921875 26.589844 35.988281 26.65625 C 36.246094 26.933594 36.539062 27.148438 36.867188 27.292969 C 37.195312 27.4375 37.550781 27.511719 37.925781 27.511719 C 38.246094 27.511719 38.53125 27.460938 38.777344 27.363281 C 39.027344 27.261719 39.222656 27.121094 39.371094 26.933594 C 39.515625 26.75 39.589844 26.53125 39.589844 26.285156 C 39.589844 25.980469 39.503906 25.734375 39.339844 25.542969 C 39.175781 25.355469 38.953125 25.199219 38.683594 25.074219 C 38.410156 24.953125 38.109375 24.84375 37.777344 24.742188 C 37.507812 24.664062 37.246094 24.570312 37.003906 24.46875 C 36.757812 24.367188 36.539062 24.238281 36.34375 24.089844 C 36.152344 23.941406 36.003906 23.757812 35.898438 23.539062 C 35.792969 23.320312 35.738281 23.054688 35.738281 22.742188 C 35.738281 22.390625 35.832031 22.078125 36.015625 21.804688 C 36.203125 21.535156 36.46875 21.320312 36.808594 21.160156 C 37.148438 21.007812 37.546875 20.929688 37.996094 20.929688 C 38.386719 20.929688 38.765625 20.996094 39.125 21.128906 C 39.488281 21.261719 39.773438 21.457031 39.984375 21.714844 C 40.085938 21.820312 40.136719 21.917969 40.136719 22.003906 C 40.136719 22.070312 40.101562 22.136719 40.035156 22.203125 C 39.96875 22.269531 39.898438 22.304688 39.816406 22.304688 C 39.75 22.304688 39.695312 22.28125 39.648438 22.234375 C 39.535156 22.09375 39.394531 21.96875 39.21875 21.859375 C 39.046875 21.75 38.855469 21.664062 38.648438 21.605469 C 38.4375 21.546875 38.222656 21.515625 37.996094 21.515625 C 37.683594 21.515625 37.40625 21.5625 37.15625 21.660156 C 36.90625 21.757812 36.710938 21.894531 36.570312 22.074219 C 36.425781 22.253906 36.355469 22.46875 36.355469 22.722656 C 36.355469 23 36.433594 23.230469 36.59375 23.410156 C 36.753906 23.589844 36.960938 23.734375 37.222656 23.851562 C 37.480469 23.96875 37.753906 24.074219 38.046875 24.175781 C 38.332031 24.253906 38.605469 24.347656 38.867188 24.449219 C 39.128906 24.554688 39.363281 24.679688 39.566406 24.832031 C 39.765625 24.984375 39.925781 25.179688 40.042969 25.410156 C 40.15625 25.644531 40.214844 25.933594 40.214844 26.285156 C 40.214844 26.625 40.117188 26.929688 39.925781 27.203125 C 39.734375 27.476562 39.472656 27.691406 39.136719 27.851562 C 38.800781 28.011719 38.40625 28.09375 37.957031 28.097656 Z M 43.765625 22.871094 C 44.175781 22.871094 44.527344 22.980469 44.820312 23.195312 C 45.113281 23.410156 45.3125 23.730469 45.417969 24.15625 L 45.277344 24.195312 L 45.335938 24.015625 C 45.421875 23.816406 45.566406 23.628906 45.769531 23.453125 C 45.972656 23.277344 46.203125 23.136719 46.460938 23.03125 C 46.71875 22.925781 46.980469 22.871094 47.246094 22.871094 C 47.664062 22.871094 48 22.960938 48.257812 23.140625 C 48.511719 23.320312 48.699219 23.558594 48.8125 23.859375 C 48.929688 24.164062 48.988281 24.503906 48.988281 24.882812 L 48.988281 27.703125 C 48.988281 27.78125 48.960938 27.851562 48.902344 27.910156 C 48.847656 27.96875 48.777344 28 48.691406 28 C 48.601562 28 48.53125 27.96875 48.476562 27.910156 C 48.417969 27.851562 48.390625 27.78125 48.390625 27.703125 L 48.390625 24.914062 C 48.390625 24.640625 48.347656 24.390625 48.261719 24.164062 C 48.175781 23.941406 48.039062 23.761719 47.855469 23.628906 C 47.667969 23.496094 47.417969 23.429688 47.109375 23.429688 C 46.835938 23.429688 46.574219 23.496094 46.328125 23.628906 C 46.078125 23.761719 45.875 23.941406 45.71875 24.164062 C 45.5625 24.390625 45.488281 24.640625 45.488281 24.914062 L 45.488281 27.703125 C 45.488281 27.78125 45.457031 27.851562 45.402344 27.910156 C 45.34375 27.96875 45.273438 28 45.1875 28 C 45.101562 28 45.03125 27.96875 44.972656 27.910156 C 44.917969 27.851562 44.890625 27.78125 44.890625 27.703125 L 44.890625 24.882812 C 44.890625 24.609375 44.851562 24.363281 44.769531 24.144531 C 44.691406 23.925781 44.5625 23.753906 44.382812 23.621094 C 44.203125 23.492188 43.960938 23.429688 43.65625 23.429688 C 43.382812 23.429688 43.128906 23.492188 42.882812 23.621094 C 42.644531 23.753906 42.449219 23.925781 42.296875 24.144531 C 42.148438 24.363281 42.074219 24.609375 42.074219 24.882812 L 42.074219 27.703125 C 42.074219 27.78125 42.046875 27.851562 41.984375 27.910156 C 41.925781 27.96875 41.855469 28 41.777344 28 C 41.683594 28 41.609375 27.96875 41.558594 27.910156 C 41.503906 27.851562 41.476562 27.78125 41.476562 27.703125 L 41.476562 23.238281 C 41.476562 23.160156 41.507812 23.089844 41.5625 23.03125 C 41.617188 22.96875 41.691406 22.941406 41.777344 22.941406 C 41.863281 22.941406 41.933594 22.96875 41.988281 23.03125 C 42.046875 23.089844 42.074219 23.160156 42.074219 23.238281 L 42.074219 24.164062 L 41.804688 24.535156 C 41.828125 24.335938 41.890625 24.136719 42 23.9375 C 42.109375 23.738281 42.253906 23.558594 42.433594 23.398438 C 42.613281 23.238281 42.816406 23.113281 43.042969 23.015625 C 43.273438 22.917969 43.515625 22.871094 43.765625 22.871094 Z M 54.675781 22.910156 C 54.765625 22.910156 54.835938 22.941406 54.890625 23 C 54.949219 23.058594 54.976562 23.132812 54.976562 23.21875 L 54.976562 27.703125 C 54.976562 27.78125 54.945312 27.851562 54.886719 27.910156 C 54.828125 27.96875 54.757812 28 54.675781 28 C 54.585938 28 54.511719 27.96875 54.457031 27.910156 C 54.40625 27.851562 54.378906 27.78125 54.378906 27.703125 L 54.378906 26.515625 L 54.546875 26.4375 C 54.546875 26.621094 54.496094 26.8125 54.394531 27.003906 C 54.292969 27.195312 54.152344 27.375 53.972656 27.542969 C 53.792969 27.707031 53.582031 27.84375 53.339844 27.945312 C 53.097656 28.046875 52.835938 28.097656 52.550781 28.097656 C 52.105469 28.097656 51.703125 27.984375 51.347656 27.75 C 50.996094 27.519531 50.71875 27.199219 50.515625 26.796875 C 50.3125 26.390625 50.210938 25.933594 50.210938 25.429688 C 50.210938 24.914062 50.3125 24.457031 50.519531 24.058594 C 50.726562 23.664062 51.003906 23.355469 51.355469 23.128906 C 51.707031 22.902344 52.101562 22.792969 52.539062 22.792969 C 52.824219 22.792969 53.089844 22.839844 53.339844 22.941406 C 53.589844 23.039062 53.804688 23.175781 53.992188 23.347656 C 54.175781 23.523438 54.324219 23.71875 54.429688 23.941406 C 54.535156 24.164062 54.589844 24.394531 54.589844 24.632812 L 54.378906 24.484375 L 54.378906 23.21875 C 54.378906 23.132812 54.40625 23.058594 54.457031 23 C 54.511719 22.941406 54.585938 22.910156 54.675781 22.910156 Z M 52.609375 27.542969 C 52.960938 27.542969 53.273438 27.449219 53.542969 27.265625 C 53.816406 27.085938 54.027344 26.832031 54.183594 26.511719 C 54.339844 26.1875 54.417969 25.828125 54.417969 25.429688 C 54.417969 25.039062 54.339844 24.6875 54.183594 24.375 C 54.027344 24.0625 53.816406 23.8125 53.542969 23.628906 C 53.273438 23.441406 52.960938 23.347656 52.609375 23.347656 C 52.265625 23.347656 51.953125 23.4375 51.675781 23.617188 C 51.402344 23.796875 51.1875 24.042969 51.03125 24.355469 C 50.875 24.667969 50.796875 25.027344 50.796875 25.429688 C 50.796875 25.828125 50.875 26.1875 51.027344 26.511719 C 51.179688 26.832031 51.394531 27.085938 51.667969 27.265625 C 51.945312 27.449219 52.257812 27.542969 52.609375 27.542969 Z M 56.835938 28 C 56.742188 28 56.667969 27.96875 56.617188 27.910156 C 56.5625 27.851562 56.535156 27.78125 56.535156 27.703125 L 56.535156 23.238281 C 56.535156 23.160156 56.5625 23.089844 56.621094 23.03125 C 56.675781 22.96875 56.746094 22.941406 56.835938 22.941406 C 56.921875 22.941406 56.992188 22.96875 57.050781 23.03125 C 57.105469 23.089844 57.132812 23.160156 57.132812 23.238281 L 57.132812 24.734375 L 56.984375 24.761719 C 57.003906 24.53125 57.0625 24.300781 57.160156 24.070312 C 57.253906 23.839844 57.382812 23.632812 57.550781 23.4375 C 57.714844 23.246094 57.914062 23.089844 58.144531 22.96875 C 58.371094 22.851562 58.628906 22.792969 58.914062 22.792969 C 59.03125 22.792969 59.148438 22.816406 59.261719 22.863281 C 59.375 22.914062 59.429688 22.996094 59.429688 23.109375 C 59.429688 23.210938 59.402344 23.285156 59.351562 23.339844 C 59.296875 23.390625 59.234375 23.417969 59.160156 23.417969 C 59.101562 23.417969 59.039062 23.402344 58.96875 23.367188 C 58.898438 23.335938 58.808594 23.320312 58.695312 23.320312 C 58.507812 23.320312 58.324219 23.375 58.136719 23.484375 C 57.953125 23.59375 57.78125 23.742188 57.628906 23.925781 C 57.476562 24.113281 57.355469 24.320312 57.269531 24.550781 C 57.175781 24.777344 57.132812 25.007812 57.132812 25.242188 L 57.132812 27.703125 C 57.132812 27.78125 57.101562 27.851562 57.042969 27.910156 C 56.984375 27.96875 56.914062 28 56.835938 28 Z M 60.035156 22.929688 L 62.355469 22.929688 C 62.433594 22.929688 62.5 22.957031 62.554688 23.015625 C 62.605469 23.070312 62.632812 23.140625 62.632812 23.21875 C 62.632812 23.292969 62.605469 23.355469 62.554688 23.410156 C 62.5 23.460938 62.433594 23.488281 62.355469 23.488281 L 60.035156 23.488281 C 59.957031 23.488281 59.890625 23.460938 59.835938 23.402344 C 59.777344 23.347656 59.75 23.28125 59.75 23.210938 C 59.75 23.128906 59.777344 23.0625 59.835938 23.011719 C 59.890625 22.957031 59.957031 22.929688 60.035156 22.929688 Z M 61.0625 21.527344 C 61.148438 21.527344 61.21875 21.554688 61.277344 21.617188 C 61.332031 21.675781 61.359375 21.746094 61.359375 21.824219 L 61.359375 26.824219 C 61.359375 27.011719 61.386719 27.148438 61.4375 27.242188 C 61.484375 27.335938 61.550781 27.398438 61.628906 27.425781 C 61.707031 27.457031 61.789062 27.472656 61.867188 27.472656 C 61.921875 27.472656 61.96875 27.464844 62.011719 27.445312 C 62.054688 27.429688 62.101562 27.421875 62.15625 27.421875 C 62.214844 27.421875 62.265625 27.445312 62.3125 27.492188 C 62.351562 27.539062 62.375 27.597656 62.375 27.671875 C 62.375 27.765625 62.320312 27.84375 62.214844 27.90625 C 62.109375 27.96875 61.984375 28 61.835938 28 C 61.777344 28 61.6875 27.996094 61.570312 27.984375 C 61.449219 27.976562 61.328125 27.9375 61.199219 27.875 C 61.074219 27.8125 60.96875 27.703125 60.886719 27.542969 C 60.804688 27.382812 60.761719 27.152344 60.761719 26.855469 L 60.761719 21.824219 C 60.761719 21.746094 60.792969 21.675781 60.847656 21.617188 C 60.90625 21.554688 60.976562 21.527344 61.0625 21.527344 Z M 64.394531 20.929688 L 64.394531 27.703125 C 64.394531 27.78125 64.363281 27.851562 64.304688 27.910156 C 64.246094 27.96875 64.175781 28 64.09375 28 C 64.007812 28 63.9375 27.96875 63.878906 27.910156 C 63.824219 27.851562 63.796875 27.78125 63.796875 27.703125 L 63.796875 20.929688 C 63.796875 20.847656 63.828125 20.78125 63.886719 20.71875 C 63.945312 20.660156 64.015625 20.628906 64.09375 20.628906 C 64.179688 20.628906 64.253906 20.660156 64.308594 20.71875 C 64.363281 20.78125 64.394531 20.847656 64.394531 20.929688 Z M 69.664062 22.820312 C 69.75 22.820312 69.824219 22.851562 69.878906 22.910156 C 69.933594 22.96875 69.964844 23.039062 69.964844 23.121094 L 69.964844 27.511719 C 69.964844 28.050781 69.859375 28.503906 69.644531 28.871094 C 69.433594 29.242188 69.148438 29.519531 68.789062 29.707031 C 68.433594 29.898438 68.023438 29.992188 67.566406 29.992188 C 67.28125 29.992188 67.019531 29.960938 66.773438 29.898438 C 66.535156 29.835938 66.335938 29.753906 66.183594 29.652344 C 66.105469 29.605469 66.042969 29.550781 66.003906 29.484375 C 65.964844 29.417969 65.960938 29.347656 65.996094 29.273438 C 66.027344 29.183594 66.078125 29.121094 66.148438 29.089844 C 66.21875 29.0625 66.289062 29.0625 66.363281 29.09375 C 66.476562 29.15625 66.636719 29.226562 66.851562 29.316406 C 67.0625 29.402344 67.304688 29.445312 67.578125 29.445312 C 67.941406 29.445312 68.257812 29.367188 68.527344 29.214844 C 68.792969 29.0625 69.003906 28.84375 69.148438 28.554688 C 69.292969 28.265625 69.367188 27.921875 69.367188 27.523438 L 69.367188 26.804688 L 69.4375 27.042969 C 69.335938 27.25 69.195312 27.433594 69.011719 27.589844 C 68.832031 27.75 68.621094 27.875 68.386719 27.964844 C 68.152344 28.054688 67.902344 28.097656 67.636719 28.097656 C 67.238281 28.097656 66.910156 28.019531 66.644531 27.855469 C 66.382812 27.691406 66.191406 27.46875 66.066406 27.183594 C 65.9375 26.898438 65.875 26.5625 65.875 26.175781 L 65.875 23.121094 C 65.875 23.039062 65.902344 22.96875 65.957031 22.910156 C 66.007812 22.851562 66.082031 22.820312 66.175781 22.820312 C 66.261719 22.820312 66.332031 22.851562 66.386719 22.910156 C 66.445312 22.96875 66.472656 23.039062 66.472656 23.121094 L 66.472656 26.085938 C 66.472656 26.550781 66.574219 26.910156 66.773438 27.164062 C 66.976562 27.414062 67.308594 27.542969 67.765625 27.542969 C 68.050781 27.542969 68.3125 27.472656 68.550781 27.335938 C 68.789062 27.203125 68.984375 27.023438 69.136719 26.800781 C 69.289062 26.578125 69.367188 26.339844 69.367188 26.085938 L 69.367188 23.121094 C 69.367188 23.039062 69.394531 22.96875 69.449219 22.910156 C 69.507812 22.851562 69.578125 22.820312 69.664062 22.820312 Z M 73.910156 22.929688 L 76.226562 22.929688 C 76.308594 22.929688 76.375 22.957031 76.425781 23.015625 C 76.480469 23.070312 76.507812 23.140625 76.507812 23.21875 C 76.507812 23.292969 76.480469 23.355469 76.425781 23.410156 C 76.375 23.460938 76.308594 23.488281 76.226562 23.488281 L 73.910156 23.488281 C 73.832031 23.488281 73.761719 23.460938 73.707031 23.402344 C 73.652344 23.347656 73.621094 23.28125 73.621094 23.210938 C 73.621094 23.128906 73.652344 23.0625 73.707031 23.011719 C 73.761719 22.957031 73.832031 22.929688 73.910156 22.929688 Z M 74.933594 21.527344 C 75.023438 21.527344 75.09375 21.554688 75.148438 21.617188 C 75.207031 21.675781 75.234375 21.746094 75.234375 21.824219 L 75.234375 26.824219 C 75.234375 27.011719 75.257812 27.148438 75.308594 27.242188 C 75.359375 27.335938 75.421875 27.398438 75.503906 27.425781 C 75.582031 27.457031 75.660156 27.472656 75.742188 27.472656 C 75.792969 27.472656 75.84375 27.464844 75.886719 27.445312 C 75.929688 27.429688 75.976562 27.421875 76.03125 27.421875 C 76.089844 27.421875 76.140625 27.445312 76.183594 27.492188 C 76.226562 27.539062 76.25 27.597656 76.25 27.671875 C 76.25 27.765625 76.195312 27.84375 76.089844 27.90625 C 75.984375 27.96875 75.855469 28 75.710938 28 C 75.652344 28 75.5625 27.996094 75.441406 27.984375 C 75.324219 27.976562 75.199219 27.9375 75.074219 27.875 C 74.949219 27.8125 74.84375 27.703125 74.761719 27.542969 C 74.679688 27.382812 74.636719 27.152344 74.636719 26.855469 L 74.636719 21.824219 C 74.636719 21.746094 74.664062 21.675781 74.722656 21.617188 C 74.777344 21.554688 74.847656 21.527344 74.933594 21.527344 Z M 77.910156 28 C 77.816406 28 77.742188 27.96875 77.691406 27.910156 C 77.636719 27.851562 77.609375 27.78125 77.609375 27.703125 L 77.609375 23.238281 C 77.609375 23.160156 77.640625 23.089844 77.695312 23.03125 C 77.75 22.96875 77.824219 22.941406 77.910156 22.941406 C 77.996094 22.941406 78.066406 22.96875 78.121094 23.03125 C 78.179688 23.089844 78.207031 23.160156 78.207031 23.238281 L 78.207031 24.734375 L 78.058594 24.761719 C 78.078125 24.53125 78.136719 24.300781 78.230469 24.070312 C 78.328125 23.839844 78.460938 23.632812 78.625 23.4375 C 78.792969 23.246094 78.988281 23.089844 79.214844 22.96875 C 79.445312 22.851562 79.703125 22.792969 79.988281 22.792969 C 80.109375 22.792969 80.222656 22.816406 80.335938 22.863281 C 80.449219 22.914062 80.503906 22.996094 80.503906 23.109375 C 80.503906 23.210938 80.480469 23.285156 80.425781 23.339844 C 80.371094 23.390625 80.308594 23.417969 80.238281 23.417969 C 80.175781 23.417969 80.113281 23.402344 80.042969 23.367188 C 79.972656 23.335938 79.882812 23.320312 79.769531 23.320312 C 79.582031 23.320312 79.398438 23.375 79.210938 23.484375 C 79.027344 23.59375 78.859375 23.742188 78.707031 23.925781 C 78.550781 24.113281 78.429688 24.320312 78.339844 24.550781 C 78.253906 24.777344 78.207031 25.007812 78.207031 25.242188 L 78.207031 27.703125 C 78.207031 27.78125 78.179688 27.851562 78.117188 27.910156 C 78.058594 27.96875 77.988281 28 77.910156 28 Z M 85.449219 22.910156 C 85.535156 22.910156 85.605469 22.941406 85.660156 23 C 85.71875 23.058594 85.746094 23.132812 85.746094 23.21875 L 85.746094 27.703125 C 85.746094 27.78125 85.71875 27.851562 85.65625 27.910156 C 85.597656 27.96875 85.527344 28 85.449219 28 C 85.355469 28 85.285156 27.96875 85.230469 27.910156 C 85.175781 27.851562 85.152344 27.78125 85.152344 27.703125 L 85.152344 26.515625 L 85.320312 26.4375 C 85.320312 26.621094 85.269531 26.8125 85.164062 27.003906 C 85.0625 27.195312 84.921875 27.375 84.742188 27.542969 C 84.5625 27.707031 84.351562 27.84375 84.109375 27.945312 C 83.867188 28.046875 83.605469 28.097656 83.320312 28.097656 C 82.875 28.097656 82.476562 27.984375 82.121094 27.75 C 81.765625 27.519531 81.488281 27.199219 81.285156 26.796875 C 81.082031 26.390625 80.984375 25.933594 80.984375 25.429688 C 80.984375 24.914062 81.085938 24.457031 81.292969 24.058594 C 81.496094 23.664062 81.777344 23.355469 82.125 23.128906 C 82.476562 22.902344 82.871094 22.792969 83.3125 22.792969 C 83.597656 22.792969 83.863281 22.839844 84.109375 22.941406 C 84.359375 23.039062 84.578125 23.175781 84.761719 23.347656 C 84.949219 23.523438 85.09375 23.71875 85.199219 23.941406 C 85.304688 24.164062 85.359375 24.394531 85.359375 24.632812 L 85.152344 24.484375 L 85.152344 23.21875 C 85.152344 23.132812 85.175781 23.058594 85.230469 23 C 85.285156 22.941406 85.355469 22.910156 85.449219 22.910156 Z M 83.378906 27.542969 C 83.730469 27.542969 84.042969 27.449219 84.316406 27.265625 C 84.585938 27.085938 84.800781 26.832031 84.957031 26.511719 C 85.113281 26.1875 85.191406 25.828125 85.191406 25.429688 C 85.191406 25.039062 85.113281 24.6875 84.957031 24.375 C 84.800781 24.0625 84.585938 23.8125 84.316406 23.628906 C 84.042969 23.441406 83.730469 23.347656 83.378906 23.347656 C 83.035156 23.347656 82.726562 23.4375 82.449219 23.617188 C 82.175781 23.796875 81.960938 24.042969 81.800781 24.355469 C 81.648438 24.667969 81.570312 25.027344 81.570312 25.429688 C 81.570312 25.828125 81.644531 26.1875 81.796875 26.511719 C 81.953125 26.832031 82.164062 27.085938 82.4375 27.265625 C 82.714844 27.449219 83.027344 27.542969 83.378906 27.542969 Z M 89.503906 22.792969 C 89.824219 22.792969 90.117188 22.824219 90.378906 22.894531 C 90.644531 22.964844 90.859375 23.058594 91.023438 23.179688 C 91.183594 23.300781 91.265625 23.429688 91.265625 23.566406 C 91.265625 23.632812 91.242188 23.699219 91.191406 23.761719 C 91.140625 23.824219 91.082031 23.855469 91.007812 23.855469 C 90.921875 23.855469 90.855469 23.835938 90.804688 23.796875 C 90.753906 23.757812 90.707031 23.710938 90.660156 23.65625 C 90.613281 23.605469 90.542969 23.554688 90.449219 23.507812 C 90.363281 23.46875 90.238281 23.433594 90.078125 23.398438 C 89.914062 23.367188 89.734375 23.347656 89.535156 23.347656 C 89.164062 23.347656 88.828125 23.441406 88.53125 23.628906 C 88.230469 23.8125 87.996094 24.0625 87.824219 24.378906 C 87.652344 24.695312 87.566406 25.046875 87.566406 25.441406 C 87.566406 25.839844 87.648438 26.199219 87.808594 26.515625 C 87.972656 26.835938 88.199219 27.085938 88.496094 27.265625 C 88.792969 27.449219 89.128906 27.542969 89.515625 27.542969 C 89.78125 27.542969 89.988281 27.519531 90.136719 27.472656 C 90.285156 27.425781 90.410156 27.371094 90.511719 27.3125 C 90.644531 27.238281 90.738281 27.167969 90.792969 27.097656 C 90.851562 27.027344 90.925781 26.992188 91.015625 26.992188 C 91.097656 26.992188 91.160156 27.019531 91.207031 27.070312 C 91.253906 27.117188 91.277344 27.183594 91.277344 27.261719 C 91.277344 27.371094 91.199219 27.488281 91.042969 27.617188 C 90.886719 27.746094 90.671875 27.859375 90.402344 27.953125 C 90.128906 28.050781 89.8125 28.097656 89.457031 28.097656 C 88.964844 28.097656 88.53125 27.984375 88.160156 27.75 C 87.785156 27.519531 87.492188 27.203125 87.285156 26.800781 C 87.074219 26.398438 86.96875 25.945312 86.96875 25.441406 C 86.96875 24.957031 87.074219 24.515625 87.289062 24.117188 C 87.5 23.71875 87.792969 23.398438 88.171875 23.152344 C 88.550781 22.914062 88.996094 22.792969 89.503906 22.792969 Z M 92.777344 28 C 92.691406 28 92.621094 27.96875 92.566406 27.910156 C 92.507812 27.851562 92.480469 27.78125 92.480469 27.703125 L 92.480469 20.929688 C 92.480469 20.847656 92.507812 20.78125 92.566406 20.71875 C 92.621094 20.660156 92.691406 20.628906 92.777344 20.628906 C 92.863281 20.628906 92.9375 20.660156 92.992188 20.71875 C 93.046875 20.78125 93.078125 20.847656 93.078125 20.929688 L 93.078125 27.703125 C 93.078125 27.78125 93.046875 27.851562 92.992188 27.910156 C 92.9375 27.96875 92.863281 28 92.777344 28 Z M 96.160156 22.890625 C 96.234375 22.890625 96.300781 22.921875 96.359375 22.984375 C 96.417969 23.046875 96.449219 23.117188 96.449219 23.191406 C 96.449219 23.277344 96.410156 23.351562 96.339844 23.417969 L 92.996094 26.265625 L 92.96875 25.558594 L 95.949219 22.992188 C 96.011719 22.925781 96.082031 22.890625 96.160156 22.890625 Z M 96.238281 28 C 96.152344 28 96.082031 27.964844 96.019531 27.890625 L 93.753906 25.480469 L 94.199219 25.070312 L 96.449219 27.472656 C 96.507812 27.539062 96.539062 27.613281 96.539062 27.703125 C 96.539062 27.792969 96.5 27.867188 96.429688 27.921875 C 96.355469 27.972656 96.292969 28 96.238281 28 Z M 104.246094 22.820312 C 104.332031 22.820312 104.402344 22.851562 104.460938 22.910156 C 104.515625 22.96875 104.542969 23.039062 104.542969 23.121094 L 104.542969 27.511719 C 104.542969 28.050781 104.4375 28.503906 104.226562 28.871094 C 104.015625 29.242188 103.730469 29.519531 103.371094 29.707031 C 103.011719 29.898438 102.601562 29.992188 102.144531 29.992188 C 101.863281 29.992188 101.597656 29.960938 101.355469 29.898438 C 101.113281 29.835938 100.914062 29.753906 100.761719 29.652344 C 100.683594 29.605469 100.625 29.550781 100.585938 29.484375 C 100.546875 29.417969 100.542969 29.347656 100.578125 29.273438 C 100.609375 29.183594 100.660156 29.121094 100.730469 29.089844 C 100.800781 29.0625 100.871094 29.0625 100.941406 29.09375 C 101.054688 29.15625 101.21875 29.226562 101.433594 29.316406 C 101.644531 29.402344 101.882812 29.445312 102.15625 29.445312 C 102.519531 29.445312 102.835938 29.367188 103.105469 29.214844 C 103.375 29.0625 103.582031 28.84375 103.726562 28.554688 C 103.875 28.265625 103.945312 27.921875 103.945312 27.523438 L 103.945312 26.804688 L 104.019531 27.042969 C 103.917969 27.25 103.777344 27.433594 103.59375 27.589844 C 103.414062 27.75 103.203125 27.875 102.96875 27.964844 C 102.734375 28.054688 102.484375 28.097656 102.21875 28.097656 C 101.820312 28.097656 101.488281 28.019531 101.226562 27.855469 C 100.964844 27.691406 100.769531 27.46875 100.644531 27.183594 C 100.519531 26.898438 100.453125 26.5625 100.453125 26.175781 L 100.453125 23.121094 C 100.453125 23.039062 100.480469 22.96875 100.535156 22.910156 C 100.589844 22.851562 100.660156 22.820312 100.753906 22.820312 C 100.839844 22.820312 100.914062 22.851562 100.96875 22.910156 C 101.023438 22.96875 101.050781 23.039062 101.050781 23.121094 L 101.050781 26.085938 C 101.050781 26.550781 101.152344 26.910156 101.355469 27.164062 C 101.558594 27.414062 101.886719 27.542969 102.34375 27.542969 C 102.632812 27.542969 102.894531 27.472656 103.128906 27.335938 C 103.371094 27.203125 103.566406 27.023438 103.71875 26.800781 C 103.871094 26.578125 103.945312 26.339844 103.945312 26.085938 L 103.945312 23.121094 C 103.945312 23.039062 103.976562 22.96875 104.03125 22.910156 C 104.089844 22.851562 104.160156 22.820312 104.246094 22.820312 Z M 110.75 25.449219 C 110.75 25.953125 110.640625 26.40625 110.417969 26.808594 C 110.195312 27.210938 109.894531 27.527344 109.515625 27.753906 C 109.136719 27.984375 108.710938 28.097656 108.234375 28.097656 C 107.761719 28.097656 107.335938 27.984375 106.957031 27.753906 C 106.574219 27.527344 106.273438 27.210938 106.050781 26.808594 C 105.828125 26.40625 105.71875 25.953125 105.71875 25.449219 C 105.71875 24.9375 105.828125 24.484375 106.050781 24.085938 C 106.273438 23.6875 106.574219 23.371094 106.957031 23.140625 C 107.335938 22.90625 107.761719 22.792969 108.234375 22.792969 C 108.710938 22.792969 109.136719 22.90625 109.515625 23.140625 C 109.894531 23.371094 110.195312 23.6875 110.417969 24.085938 C 110.640625 24.484375 110.75 24.9375 110.75 25.449219 Z M 110.152344 25.449219 C 110.152344 25.046875 110.070312 24.683594 109.90625 24.367188 C 109.738281 24.054688 109.511719 23.804688 109.222656 23.621094 C 108.933594 23.441406 108.605469 23.347656 108.234375 23.347656 C 107.867188 23.347656 107.542969 23.441406 107.253906 23.621094 C 106.964844 23.804688 106.738281 24.054688 106.566406 24.367188 C 106.398438 24.683594 106.3125 25.046875 106.3125 25.449219 C 106.3125 25.855469 106.398438 26.214844 106.566406 26.527344 C 106.738281 26.839844 106.964844 27.085938 107.253906 27.265625 C 107.542969 27.449219 107.867188 27.542969 108.234375 27.542969 C 108.605469 27.542969 108.933594 27.449219 109.222656 27.265625 C 109.511719 27.085938 109.738281 26.839844 109.90625 26.527344 C 110.070312 26.214844 110.152344 25.855469 110.152344 25.449219 Z M 115.773438 22.941406 C 115.859375 22.941406 115.929688 22.96875 115.984375 23.03125 C 116.042969 23.089844 116.070312 23.160156 116.070312 23.238281 L 116.070312 26.046875 C 116.070312 26.707031 115.886719 27.207031 115.515625 27.550781 C 115.144531 27.898438 114.640625 28.070312 114.011719 28.070312 C 113.390625 28.070312 112.894531 27.898438 112.527344 27.550781 C 112.15625 27.207031 111.972656 26.707031 111.972656 26.046875 L 111.972656 23.238281 C 111.972656 23.160156 112 23.089844 112.058594 23.03125 C 112.113281 22.96875 112.1875 22.941406 112.273438 22.941406 C 112.359375 22.941406 112.429688 22.96875 112.484375 23.03125 C 112.542969 23.089844 112.570312 23.160156 112.570312 23.238281 L 112.570312 26.046875 C 112.570312 26.527344 112.699219 26.890625 112.953125 27.136719 C 113.207031 27.386719 113.5625 27.511719 114.011719 27.511719 C 114.46875 27.511719 114.828125 27.386719 115.085938 27.136719 C 115.34375 26.890625 115.476562 26.527344 115.476562 26.046875 L 115.476562 23.238281 C 115.476562 23.160156 115.5 23.089844 115.554688 23.03125 C 115.605469 22.96875 115.679688 22.941406 115.773438 22.941406 Z M 117.929688 28 C 117.839844 28 117.765625 27.96875 117.710938 27.910156 C 117.660156 27.851562 117.632812 27.78125 117.632812 27.703125 L 117.632812 23.238281 C 117.632812 23.160156 117.660156 23.089844 117.714844 23.03125 C 117.773438 22.96875 117.84375 22.941406 117.929688 22.941406 C 118.019531 22.941406 118.089844 22.96875 118.144531 23.03125 C 118.203125 23.089844 118.230469 23.160156 118.230469 23.238281 L 118.230469 24.734375 L 118.082031 24.761719 C 118.101562 24.53125 118.160156 24.300781 118.253906 24.070312 C 118.351562 23.839844 118.480469 23.632812 118.648438 23.4375 C 118.8125 23.246094 119.011719 23.089844 119.238281 22.96875 C 119.46875 22.851562 119.726562 22.792969 120.011719 22.792969 C 120.128906 22.792969 120.246094 22.816406 120.359375 22.863281 C 120.472656 22.914062 120.527344 22.996094 120.527344 23.109375 C 120.527344 23.210938 120.5 23.285156 120.449219 23.339844 C 120.394531 23.390625 120.332031 23.417969 120.257812 23.417969 C 120.199219 23.417969 120.132812 23.402344 120.0625 23.367188 C 119.996094 23.335938 119.902344 23.320312 119.792969 23.320312 C 119.605469 23.320312 119.421875 23.375 119.234375 23.484375 C 119.050781 23.59375 118.878906 23.742188 118.726562 23.925781 C 118.574219 24.113281 118.453125 24.320312 118.363281 24.550781 C 118.273438 24.777344 118.230469 25.007812 118.230469 25.242188 L 118.230469 27.703125 C 118.230469 27.78125 118.199219 27.851562 118.140625 27.910156 C 118.082031 27.96875 118.011719 28 117.929688 28 Z M 123.847656 22.929688 L 126.164062 22.929688 C 126.246094 22.929688 126.3125 22.957031 126.363281 23.015625 C 126.417969 23.070312 126.445312 23.140625 126.445312 23.21875 C 126.445312 23.292969 126.417969 23.355469 126.363281 23.410156 C 126.3125 23.460938 126.246094 23.488281 126.164062 23.488281 L 123.847656 23.488281 C 123.769531 23.488281 123.699219 23.460938 123.644531 23.402344 C 123.589844 23.347656 123.558594 23.28125 123.558594 23.210938 C 123.558594 23.128906 123.589844 23.0625 123.644531 23.011719 C 123.699219 22.957031 123.769531 22.929688 123.847656 22.929688 Z M 124.871094 21.527344 C 124.957031 21.527344 125.03125 21.554688 125.085938 21.617188 C 125.144531 21.675781 125.171875 21.746094 125.171875 21.824219 L 125.171875 26.824219 C 125.171875 27.011719 125.195312 27.148438 125.246094 27.242188 C 125.296875 27.335938 125.359375 27.398438 125.4375 27.425781 C 125.519531 27.457031 125.597656 27.472656 125.679688 27.472656 C 125.730469 27.472656 125.78125 27.464844 125.824219 27.445312 C 125.867188 27.429688 125.914062 27.421875 125.964844 27.421875 C 126.027344 27.421875 126.078125 27.445312 126.121094 27.492188 C 126.164062 27.539062 126.183594 27.597656 126.183594 27.671875 C 126.183594 27.765625 126.132812 27.84375 126.027344 27.90625 C 125.921875 27.96875 125.792969 28 125.648438 28 C 125.589844 28 125.5 27.996094 125.378906 27.984375 C 125.261719 27.976562 125.136719 27.9375 125.011719 27.875 C 124.886719 27.8125 124.78125 27.703125 124.699219 27.542969 C 124.617188 27.382812 124.574219 27.152344 124.574219 26.855469 L 124.574219 21.824219 C 124.574219 21.746094 124.601562 21.675781 124.660156 21.617188 C 124.714844 21.554688 124.785156 21.527344 124.871094 21.527344 Z M 132.191406 25.449219 C 132.191406 25.953125 132.082031 26.40625 131.859375 26.808594 C 131.636719 27.210938 131.335938 27.527344 130.960938 27.753906 C 130.582031 27.984375 130.152344 28.097656 129.675781 28.097656 C 129.207031 28.097656 128.78125 27.984375 128.398438 27.753906 C 128.015625 27.527344 127.714844 27.210938 127.492188 26.808594 C 127.269531 26.40625 127.160156 25.953125 127.160156 25.449219 C 127.160156 24.9375 127.269531 24.484375 127.492188 24.085938 C 127.714844 23.6875 128.015625 23.371094 128.398438 23.140625 C 128.78125 22.90625 129.207031 22.792969 129.675781 22.792969 C 130.152344 22.792969 130.582031 22.90625 130.960938 23.140625 C 131.335938 23.371094 131.636719 23.6875 131.859375 24.085938 C 132.082031 24.484375 132.191406 24.9375 132.191406 25.449219 Z M 131.597656 25.449219 C 131.597656 25.046875 131.511719 24.683594 131.347656 24.367188 C 131.183594 24.054688 130.953125 23.804688 130.664062 23.621094 C 130.378906 23.441406 130.046875 23.347656 129.675781 23.347656 C 129.3125 23.347656 128.984375 23.441406 128.695312 23.621094 C 128.40625 23.804688 128.179688 24.054688 128.007812 24.367188 C 127.839844 24.683594 127.757812 25.046875 127.757812 25.449219 C 127.757812 25.855469 127.839844 26.214844 128.007812 26.527344 C 128.179688 26.839844 128.40625 27.085938 128.695312 27.265625 C 128.984375 27.449219 129.3125 27.542969 129.675781 27.542969 C 130.046875 27.542969 130.378906 27.449219 130.664062 27.265625 C 130.953125 27.085938 131.183594 26.839844 131.347656 26.527344 C 131.511719 26.214844 131.597656 25.855469 131.597656 25.449219 Z M 137.542969 20.628906 C 137.628906 20.628906 137.703125 20.65625 137.757812 20.714844 C 137.816406 20.769531 137.84375 20.84375 137.84375 20.929688 L 137.84375 27.703125 C 137.84375 27.78125 137.8125 27.851562 137.753906 27.910156 C 137.695312 27.96875 137.625 28 137.542969 28 C 137.453125 28 137.378906 27.96875 137.324219 27.910156 C 137.273438 27.851562 137.246094 27.78125 137.246094 27.703125 L 137.246094 26.515625 L 137.414062 26.375 C 137.414062 26.5625 137.367188 26.757812 137.265625 26.957031 C 137.167969 27.160156 137.027344 27.347656 136.84375 27.523438 C 136.660156 27.695312 136.449219 27.835938 136.207031 27.941406 C 135.964844 28.046875 135.699219 28.097656 135.414062 28.097656 C 134.976562 28.097656 134.582031 27.984375 134.226562 27.75 C 133.871094 27.519531 133.59375 27.203125 133.386719 26.804688 C 133.179688 26.40625 133.078125 25.953125 133.078125 25.441406 C 133.078125 24.9375 133.179688 24.484375 133.386719 24.082031 C 133.59375 23.679688 133.871094 23.363281 134.222656 23.132812 C 134.574219 22.90625 134.96875 22.792969 135.40625 22.792969 C 135.683594 22.792969 135.945312 22.839844 136.191406 22.941406 C 136.4375 23.039062 136.652344 23.175781 136.84375 23.347656 C 137.03125 23.523438 137.179688 23.71875 137.289062 23.941406 C 137.398438 24.164062 137.457031 24.394531 137.457031 24.632812 L 137.246094 24.484375 L 137.246094 20.929688 C 137.246094 20.847656 137.273438 20.78125 137.324219 20.71875 C 137.378906 20.660156 137.453125 20.628906 137.542969 20.628906 Z M 135.476562 27.542969 C 135.828125 27.542969 136.140625 27.449219 136.410156 27.265625 C 136.683594 27.085938 136.894531 26.835938 137.050781 26.519531 C 137.207031 26.207031 137.285156 25.84375 137.285156 25.441406 C 137.285156 25.042969 137.207031 24.683594 137.050781 24.367188 C 136.894531 24.054688 136.683594 23.804688 136.410156 23.621094 C 136.140625 23.441406 135.828125 23.347656 135.476562 23.347656 C 135.132812 23.347656 134.820312 23.441406 134.542969 23.621094 C 134.269531 23.804688 134.054688 24.054688 133.898438 24.367188 C 133.742188 24.683594 133.664062 25.042969 133.664062 25.441406 C 133.664062 25.839844 133.742188 26.199219 133.898438 26.515625 C 134.054688 26.835938 134.269531 27.085938 134.542969 27.265625 C 134.820312 27.449219 135.132812 27.542969 135.476562 27.542969 Z M 144.097656 25.449219 C 144.097656 25.953125 143.988281 26.40625 143.765625 26.808594 C 143.542969 27.210938 143.242188 27.527344 142.863281 27.753906 C 142.484375 27.984375 142.058594 28.097656 141.582031 28.097656 C 141.109375 28.097656 140.683594 27.984375 140.304688 27.753906 C 139.921875 27.527344 139.621094 27.210938 139.398438 26.808594 C 139.175781 26.40625 139.066406 25.953125 139.066406 25.449219 C 139.066406 24.9375 139.175781 24.484375 139.398438 24.085938 C 139.621094 23.6875 139.921875 23.371094 140.304688 23.140625 C 140.683594 22.90625 141.109375 22.792969 141.582031 22.792969 C 142.058594 22.792969 142.484375 22.90625 142.863281 23.140625 C 143.242188 23.371094 143.542969 23.6875 143.765625 24.085938 C 143.988281 24.484375 144.097656 24.9375 144.097656 25.449219 Z M 143.5 25.449219 C 143.5 25.046875 143.417969 24.683594 143.253906 24.367188 C 143.085938 24.054688 142.859375 23.804688 142.570312 23.621094 C 142.28125 23.441406 141.953125 23.347656 141.582031 23.347656 C 141.214844 23.347656 140.890625 23.441406 140.601562 23.621094 C 140.3125 23.804688 140.085938 24.054688 139.914062 24.367188 C 139.746094 24.683594 139.660156 25.046875 139.660156 25.449219 C 139.660156 25.855469 139.746094 26.214844 139.914062 26.527344 C 140.085938 26.839844 140.3125 27.085938 140.601562 27.265625 C 140.890625 27.449219 141.214844 27.542969 141.582031 27.542969 C 141.953125 27.542969 142.28125 27.449219 142.570312 27.265625 C 142.859375 27.085938 143.085938 26.839844 143.253906 26.527344 C 143.417969 26.214844 143.5 25.855469 143.5 25.449219 Z M 145.03125 27.191406 C 144.980469 27.113281 144.953125 27.035156 144.960938 26.957031 C 144.960938 26.882812 145.003906 26.820312 145.082031 26.773438 C 145.136719 26.730469 145.195312 26.707031 145.265625 26.714844 C 145.335938 26.722656 145.402344 26.753906 145.460938 26.816406 C 145.640625 27.046875 145.855469 27.234375 146.113281 27.375 C 146.367188 27.519531 146.671875 27.589844 147.023438 27.589844 C 147.207031 27.589844 147.390625 27.558594 147.574219 27.496094 C 147.757812 27.433594 147.90625 27.335938 148.027344 27.207031 C 148.144531 27.078125 148.207031 26.914062 148.207031 26.714844 C 148.207031 26.507812 148.144531 26.34375 148.027344 26.21875 C 147.90625 26.089844 147.753906 25.992188 147.566406 25.917969 C 147.375 25.84375 147.175781 25.78125 146.960938 25.730469 C 146.738281 25.667969 146.519531 25.601562 146.304688 25.523438 C 146.09375 25.449219 145.90625 25.351562 145.746094 25.234375 C 145.582031 25.121094 145.449219 24.980469 145.351562 24.8125 C 145.25 24.648438 145.203125 24.445312 145.203125 24.207031 C 145.203125 23.925781 145.277344 23.679688 145.429688 23.46875 C 145.582031 23.257812 145.789062 23.089844 146.054688 22.96875 C 146.3125 22.851562 146.609375 22.792969 146.941406 22.792969 C 147.109375 22.792969 147.289062 22.8125 147.480469 22.855469 C 147.671875 22.898438 147.859375 22.96875 148.046875 23.070312 C 148.230469 23.167969 148.398438 23.304688 148.542969 23.480469 C 148.601562 23.539062 148.632812 23.605469 148.632812 23.683594 C 148.632812 23.757812 148.601562 23.828125 148.535156 23.886719 C 148.480469 23.925781 148.417969 23.945312 148.351562 23.945312 C 148.28125 23.945312 148.222656 23.921875 148.175781 23.867188 C 148.015625 23.6875 147.828125 23.550781 147.609375 23.457031 C 147.390625 23.367188 147.15625 23.320312 146.902344 23.320312 C 146.710938 23.320312 146.53125 23.351562 146.363281 23.414062 C 146.191406 23.476562 146.050781 23.570312 145.9375 23.699219 C 145.824219 23.824219 145.769531 23.988281 145.769531 24.195312 C 145.78125 24.386719 145.851562 24.542969 145.972656 24.664062 C 146.09375 24.78125 146.257812 24.882812 146.460938 24.960938 C 146.664062 25.042969 146.890625 25.113281 147.140625 25.179688 C 147.355469 25.234375 147.558594 25.296875 147.753906 25.371094 C 147.949219 25.445312 148.121094 25.535156 148.269531 25.644531 C 148.417969 25.753906 148.539062 25.890625 148.628906 26.058594 C 148.71875 26.222656 148.761719 26.433594 148.761719 26.683594 C 148.761719 26.976562 148.683594 27.230469 148.519531 27.441406 C 148.355469 27.65625 148.140625 27.816406 147.867188 27.929688 C 147.59375 28.042969 147.292969 28.097656 146.960938 28.097656 C 146.605469 28.097656 146.257812 28.03125 145.925781 27.890625 C 145.589844 27.75 145.292969 27.519531 145.03125 27.191406 Z M 145.03125 27.191406 "/>
</g>
<g clip-path="url(#clip3)" clip-rule="nonzero">
<path style=" stroke:none;fill-rule:nonzero;fill:rgb(97.254902%,98.039216%,98.823529%);fill-opacity:1;" d="M 9.597656 31.863281 C 4.324219 31.863281 0.0507812 27.585938 0.0507812 22.304688 L 0.0507812 9.558594 C 0.0507812 4.28125 4.324219 0 9.597656 0 L 22.328125 0 C 27.601562 0 31.875 4.28125 31.875 9.558594 L 31.875 22.304688 C 31.875 27.585938 27.601562 31.863281 22.328125 31.863281 Z M 9.597656 31.863281 "/>
</g>
<g clip-path="url(#clip4)" clip-rule="nonzero">
<path style=" stroke:none;fill-rule:nonzero;fill:rgb(0%,13.72549%,100%);fill-opacity:1;" d="M 10.410156 24.574219 C 10.25 24.734375 10.035156 24.855469 9.773438 24.925781 L 7.992188 25.429688 C 7.519531 25.5625 7.078125 25.480469 6.792969 25.203125 C 6.503906 24.929688 6.402344 24.492188 6.515625 24.011719 L 6.945312 22.183594 C 7.011719 21.898438 7.128906 21.667969 7.300781 21.5 C 7.65625 21.140625 8.285156 21.039062 8.878906 21.613281 L 10.269531 22.960938 C 10.554688 23.234375 10.703125 23.546875 10.707031 23.863281 C 10.707031 24.128906 10.601562 24.378906 10.410156 24.574219 Z M 10.410156 24.574219 "/>
</g>
<g clip-path="url(#clip5)" clip-rule="nonzero">
<path style=" stroke:none;fill-rule:nonzero;fill:rgb(0%,13.72549%,100%);fill-opacity:1;" d="M 23.921875 7.9375 C 22.472656 6.484375 20.832031 5.953125 20.015625 6.730469 L 20.007812 6.722656 L 8.621094 18.125 C 8.148438 18.597656 8.148438 19.367188 8.621094 19.839844 C 9.09375 20.316406 9.867188 20.316406 10.339844 19.839844 L 20.527344 9.640625 L 20.53125 9.644531 C 20.671875 9.523438 20.886719 9.523438 21.023438 9.660156 C 21.15625 9.796875 21.160156 10.011719 21.035156 10.152344 L 21.039062 10.15625 L 11.40625 19.800781 C 10.601562 20.605469 10.601562 21.910156 11.40625 22.714844 C 12.207031 23.519531 13.511719 23.519531 14.316406 22.714844 L 25.058594 11.957031 C 25.089844 11.925781 25.109375 11.890625 25.136719 11.859375 C 25.851562 11.019531 25.347656 9.363281 23.921875 7.9375 Z M 23.921875 7.9375 "/>
</g>
</g>
</svg>
