<?xml version="1.0" encoding="UTF-8"?>
<svg xmlns="http://www.w3.org/2000/svg" xmlns:xlink="http://www.w3.org/1999/xlink" width="200px" height="43px" viewBox="0 0 200 43" version="1.1">
<defs>
<clipPath id="clip1">
  <path d="M 47.589844 2.515625 L 199.6875 2.515625 L 199.6875 22.90625 L 47.589844 22.90625 Z M 47.589844 2.515625 "/>
</clipPath>
<clipPath id="clip2">
  <path d="M 47.589844 27.722656 L 199.6875 27.722656 L 199.6875 40.300781 L 47.589844 40.300781 Z M 47.589844 27.722656 "/>
</clipPath>
<clipPath id="clip3">
  <path d="M 0.0664062 0 L 42.785156 0 L 42.785156 42.820312 L 0.0664062 42.820312 Z M 0.0664062 0 "/>
</clipPath>
<clipPath id="clip4">
  <path d="M 8.683594 28 L 15 28 L 15 34.253906 L 8.683594 34.253906 Z M 8.683594 28 "/>
</clipPath>
<clipPath id="clip5">
  <path d="M 11 8.5625 L 34.171875 8.5625 L 34.171875 32 L 11 32 Z M 11 8.5625 "/>
</clipPath>
</defs>
<g id="surface1">
<g clip-path="url(#clip1)" clip-rule="nonzero">
<path style=" stroke:none;fill-rule:nonzero;fill:rgb(0%,0%,0%);fill-opacity:1;" d="M 53.355469 20.957031 C 53.90625 20.957031 54.417969 20.882812 54.886719 20.742188 C 55.355469 20.59375 55.753906 20.382812 56.085938 20.113281 C 56.421875 19.835938 56.683594 19.511719 56.875 19.132812 C 57.0625 18.757812 57.15625 18.339844 57.15625 17.878906 C 57.15625 17.335938 57.027344 16.875 56.769531 16.496094 C 56.515625 16.121094 56.183594 15.789062 55.769531 15.503906 C 55.355469 15.21875 54.878906 14.964844 54.347656 14.742188 C 53.8125 14.519531 53.265625 14.292969 52.710938 14.0625 C 52.160156 13.832031 51.617188 13.582031 51.082031 13.316406 C 50.550781 13.046875 50.074219 12.722656 49.660156 12.335938 C 49.246094 11.949219 48.914062 11.492188 48.660156 10.972656 C 48.402344 10.445312 48.273438 9.8125 48.273438 9.066406 C 48.273438 8.277344 48.425781 7.570312 48.726562 6.941406 C 49.027344 6.3125 49.445312 5.777344 49.984375 5.339844 C 50.527344 4.898438 51.164062 4.566406 51.90625 4.335938 C 52.644531 4.105469 53.457031 3.988281 54.347656 3.988281 C 54.886719 3.988281 55.570312 4.042969 56.390625 4.144531 C 57.210938 4.25 58.078125 4.441406 59 4.714844 L 58.585938 6.90625 L 58.332031 7.027344 C 57.875 6.820312 57.425781 6.644531 56.992188 6.503906 C 56.558594 6.359375 56.148438 6.246094 55.765625 6.164062 C 55.375 6.078125 55.019531 6.019531 54.695312 5.988281 C 54.371094 5.953125 54.085938 5.9375 53.84375 5.9375 C 53.347656 5.9375 52.902344 5.996094 52.507812 6.117188 C 52.109375 6.238281 51.769531 6.417969 51.488281 6.648438 C 51.210938 6.875 50.996094 7.15625 50.835938 7.484375 C 50.683594 7.820312 50.605469 8.195312 50.605469 8.613281 C 50.605469 9.175781 50.734375 9.652344 50.992188 10.046875 C 51.246094 10.441406 51.582031 10.789062 52.003906 11.089844 C 52.429688 11.394531 52.90625 11.660156 53.441406 11.894531 C 53.976562 12.128906 54.523438 12.367188 55.082031 12.597656 C 55.636719 12.832031 56.179688 13.082031 56.714844 13.351562 C 57.25 13.617188 57.726562 13.929688 58.152344 14.289062 C 58.574219 14.644531 58.914062 15.066406 59.167969 15.554688 C 59.421875 16.039062 59.550781 16.621094 59.550781 17.300781 C 59.550781 18.046875 59.390625 18.757812 59.066406 19.433594 C 58.746094 20.105469 58.292969 20.699219 57.710938 21.214844 C 57.132812 21.730469 56.433594 22.144531 55.621094 22.449219 C 54.804688 22.753906 53.902344 22.90625 52.914062 22.90625 C 52.496094 22.90625 52.058594 22.878906 51.601562 22.820312 C 51.148438 22.761719 50.691406 22.679688 50.230469 22.574219 C 49.773438 22.46875 49.316406 22.34375 48.871094 22.191406 C 48.425781 22.042969 48 21.875 47.59375 21.6875 L 48.023438 19.488281 L 48.273438 19.359375 C 49.125 19.855469 49.988281 20.246094 50.863281 20.527344 C 51.734375 20.8125 52.566406 20.957031 53.355469 20.957031 Z M 63.613281 22.65625 L 63.613281 9.328125 L 65.46875 9.328125 L 65.84375 11.640625 C 66.128906 11.375 66.457031 11.089844 66.828125 10.785156 C 67.203125 10.484375 67.601562 10.207031 68.019531 9.957031 C 68.441406 9.707031 68.882812 9.496094 69.335938 9.328125 C 69.792969 9.160156 70.25 9.078125 70.714844 9.078125 C 71.085938 9.078125 71.457031 9.140625 71.828125 9.269531 C 72.195312 9.394531 72.535156 9.570312 72.851562 9.792969 C 73.160156 10.019531 73.441406 10.292969 73.6875 10.617188 C 73.933594 10.941406 74.128906 11.296875 74.273438 11.691406 C 74.582031 11.417969 74.921875 11.125 75.289062 10.816406 C 75.65625 10.511719 76.046875 10.230469 76.460938 9.972656 C 76.875 9.710938 77.316406 9.496094 77.789062 9.328125 C 78.253906 9.160156 78.746094 9.078125 79.265625 9.078125 C 79.875 9.078125 80.425781 9.199219 80.914062 9.4375 C 81.402344 9.675781 81.816406 10.007812 82.164062 10.4375 C 82.507812 10.863281 82.769531 11.367188 82.949219 11.949219 C 83.136719 12.535156 83.226562 13.167969 83.226562 13.855469 L 83.226562 22.65625 L 80.84375 22.65625 L 80.84375 14.054688 C 80.84375 13.601562 80.785156 13.195312 80.664062 12.832031 C 80.539062 12.46875 80.367188 12.15625 80.144531 11.894531 C 79.917969 11.632812 79.644531 11.433594 79.324219 11.296875 C 79 11.160156 78.636719 11.089844 78.234375 11.089844 C 77.890625 11.089844 77.566406 11.140625 77.261719 11.238281 C 76.957031 11.339844 76.65625 11.480469 76.359375 11.664062 C 76.066406 11.839844 75.769531 12.058594 75.46875 12.3125 C 75.171875 12.5625 74.871094 12.832031 74.5625 13.125 C 74.578125 13.246094 74.589844 13.363281 74.59375 13.476562 C 74.59375 13.589844 74.597656 13.714844 74.597656 13.855469 L 74.597656 22.65625 L 72.21875 22.65625 L 72.21875 14.054688 C 72.21875 13.601562 72.15625 13.195312 72.027344 12.832031 C 71.902344 12.46875 71.722656 12.15625 71.492188 11.894531 C 71.265625 11.632812 70.988281 11.433594 70.660156 11.296875 C 70.335938 11.160156 69.976562 11.089844 69.582031 11.089844 C 69.246094 11.089844 68.929688 11.140625 68.628906 11.238281 C 68.324219 11.339844 68.03125 11.480469 67.742188 11.664062 C 67.457031 11.839844 67.167969 12.054688 66.878906 12.304688 C 66.59375 12.554688 66.296875 12.820312 65.996094 13.105469 L 65.996094 22.65625 Z M 94.914062 20.667969 C 94.707031 20.847656 94.453125 21.0625 94.160156 21.316406 C 93.863281 21.570312 93.527344 21.816406 93.152344 22.054688 C 92.78125 22.285156 92.375 22.488281 91.933594 22.65625 C 91.496094 22.824219 91.03125 22.90625 90.539062 22.90625 C 90.097656 22.90625 89.664062 22.832031 89.242188 22.675781 C 88.820312 22.519531 88.445312 22.285156 88.117188 21.980469 C 87.792969 21.675781 87.53125 21.296875 87.332031 20.84375 C 87.136719 20.394531 87.039062 19.875 87.039062 19.289062 C 87.039062 18.929688 87.082031 18.5625 87.171875 18.191406 C 87.257812 17.824219 87.40625 17.46875 87.613281 17.128906 C 87.824219 16.789062 88.097656 16.472656 88.4375 16.171875 C 88.777344 15.878906 89.195312 15.617188 89.691406 15.394531 C 90.191406 15.171875 90.777344 15 91.453125 14.875 C 92.128906 14.75 92.910156 14.683594 93.789062 14.683594 L 94.914062 14.683594 L 94.914062 13.53125 C 94.914062 13.144531 94.847656 12.796875 94.714844 12.484375 C 94.582031 12.175781 94.394531 11.910156 94.160156 11.6875 C 93.917969 11.464844 93.636719 11.292969 93.308594 11.171875 C 92.972656 11.050781 92.609375 10.988281 92.207031 10.988281 C 91.90625 10.988281 91.585938 11.023438 91.246094 11.089844 C 90.90625 11.15625 90.570312 11.253906 90.230469 11.378906 C 89.894531 11.507812 89.570312 11.652344 89.257812 11.820312 C 88.949219 11.988281 88.679688 12.171875 88.441406 12.371094 L 88.222656 12.25 L 87.71875 10.410156 C 88.199219 10.144531 88.667969 9.921875 89.121094 9.75 C 89.570312 9.582031 90.003906 9.445312 90.417969 9.34375 C 90.835938 9.242188 91.230469 9.171875 91.605469 9.132812 C 91.984375 9.097656 92.34375 9.078125 92.683594 9.078125 C 94.246094 9.078125 95.40625 9.402344 96.164062 10.050781 C 96.921875 10.703125 97.296875 11.675781 97.296875 12.976562 L 97.296875 19.539062 C 97.296875 19.648438 97.308594 19.777344 97.324219 19.933594 C 97.339844 20.089844 97.378906 20.238281 97.441406 20.378906 C 97.507812 20.523438 97.601562 20.644531 97.71875 20.746094 C 97.839844 20.84375 98.003906 20.894531 98.210938 20.894531 C 98.332031 20.894531 98.488281 20.875 98.679688 20.839844 C 98.871094 20.800781 99.0625 20.734375 99.253906 20.640625 L 99.253906 21.976562 C 98.855469 22.253906 98.449219 22.480469 98.042969 22.652344 C 97.640625 22.824219 97.25 22.90625 96.871094 22.90625 C 96.53125 22.90625 96.246094 22.839844 96.023438 22.703125 C 95.804688 22.5625 95.621094 22.382812 95.476562 22.167969 C 95.328125 21.945312 95.210938 21.703125 95.128906 21.441406 C 95.042969 21.175781 94.972656 20.917969 94.914062 20.667969 Z M 94.914062 19.0625 L 94.914062 16.140625 L 93.964844 16.140625 C 92.984375 16.140625 92.203125 16.210938 91.621094 16.351562 C 91.042969 16.492188 90.601562 16.675781 90.296875 16.902344 C 89.988281 17.132812 89.785156 17.398438 89.691406 17.703125 C 89.59375 18.003906 89.546875 18.320312 89.546875 18.644531 C 89.546875 19 89.597656 19.3125 89.699219 19.585938 C 89.800781 19.863281 89.9375 20.101562 90.117188 20.296875 C 90.296875 20.496094 90.515625 20.644531 90.765625 20.746094 C 91.015625 20.84375 91.285156 20.894531 91.582031 20.894531 C 91.808594 20.894531 92.039062 20.867188 92.273438 20.8125 C 92.515625 20.757812 92.769531 20.660156 93.039062 20.523438 C 93.3125 20.386719 93.601562 20.203125 93.90625 19.96875 C 94.210938 19.730469 94.546875 19.429688 94.914062 19.0625 Z M 102.152344 22.65625 L 102.152344 9.328125 L 104.007812 9.328125 L 104.382812 13.324219 C 104.492188 13.117188 104.605469 12.902344 104.726562 12.683594 C 104.851562 12.457031 104.972656 12.242188 105.089844 12.03125 C 105.214844 11.824219 105.335938 11.625 105.453125 11.441406 C 105.566406 11.257812 105.671875 11.097656 105.765625 10.960938 C 105.949219 10.703125 106.15625 10.460938 106.386719 10.230469 C 106.617188 10 106.863281 9.796875 107.132812 9.625 C 107.398438 9.453125 107.683594 9.316406 107.984375 9.222656 C 108.285156 9.125 108.605469 9.078125 108.949219 9.078125 C 109.191406 9.078125 109.421875 9.105469 109.636719 9.160156 C 109.855469 9.214844 110.035156 9.304688 110.175781 9.433594 L 109.925781 11.667969 C 109.773438 11.625 109.628906 11.597656 109.484375 11.585938 C 109.335938 11.574219 109.191406 11.570312 109.046875 11.570312 C 108.453125 11.570312 107.9375 11.664062 107.5 11.859375 C 107.0625 12.050781 106.667969 12.3125 106.320312 12.640625 C 105.972656 12.972656 105.660156 13.363281 105.378906 13.804688 C 105.101562 14.25 104.820312 14.730469 104.535156 15.242188 L 104.535156 22.65625 Z M 114.554688 19.3125 L 114.554688 11.238281 L 111.871094 11.238281 L 112.074219 10.007812 C 112.722656 9.875 113.246094 9.707031 113.640625 9.5 C 114.035156 9.292969 114.359375 9.035156 114.609375 8.726562 C 114.863281 8.417969 115.078125 8.042969 115.246094 7.597656 C 115.421875 7.160156 115.617188 6.636719 115.832031 6.023438 L 116.9375 6.023438 L 116.9375 9.328125 L 121.75 9.328125 L 121.253906 11.238281 L 116.9375 11.238281 L 116.9375 18.6875 C 116.9375 19.085938 117 19.425781 117.117188 19.707031 C 117.242188 19.988281 117.410156 20.214844 117.625 20.394531 C 117.84375 20.570312 118.109375 20.699219 118.417969 20.777344 C 118.726562 20.855469 119.070312 20.894531 119.445312 20.894531 C 119.828125 20.894531 120.210938 20.859375 120.597656 20.785156 C 120.976562 20.71875 121.335938 20.621094 121.679688 20.492188 L 121.679688 21.851562 C 121.152344 22.195312 120.597656 22.457031 120.015625 22.636719 C 119.4375 22.816406 118.847656 22.90625 118.242188 22.90625 C 117.679688 22.90625 117.175781 22.828125 116.722656 22.667969 C 116.273438 22.507812 115.886719 22.277344 115.566406 21.976562 C 115.246094 21.675781 114.996094 21.300781 114.816406 20.855469 C 114.640625 20.402344 114.554688 19.890625 114.554688 19.3125 Z M 132.175781 19.3125 L 132.175781 11.238281 L 129.488281 11.238281 L 129.6875 10.007812 C 130.34375 9.875 130.863281 9.707031 131.253906 9.5 C 131.648438 9.292969 131.976562 9.035156 132.230469 8.726562 C 132.484375 8.417969 132.699219 8.042969 132.867188 7.597656 C 133.039062 7.160156 133.234375 6.636719 133.453125 6.023438 L 134.558594 6.023438 L 134.558594 9.328125 L 139.371094 9.328125 L 138.867188 11.238281 L 134.558594 11.238281 L 134.558594 18.6875 C 134.558594 19.085938 134.617188 19.425781 134.738281 19.707031 C 134.859375 19.988281 135.027344 20.214844 135.246094 20.394531 C 135.464844 20.570312 135.726562 20.699219 136.039062 20.777344 C 136.347656 20.855469 136.6875 20.894531 137.066406 20.894531 C 137.449219 20.894531 137.832031 20.859375 138.210938 20.785156 C 138.589844 20.71875 138.953125 20.621094 139.296875 20.492188 L 139.296875 21.851562 C 138.769531 22.195312 138.21875 22.457031 137.636719 22.636719 C 137.054688 22.816406 136.460938 22.90625 135.859375 22.90625 C 135.300781 22.90625 134.796875 22.828125 134.34375 22.667969 C 133.890625 22.507812 133.503906 22.277344 133.183594 21.976562 C 132.859375 21.675781 132.613281 21.300781 132.4375 20.855469 C 132.261719 20.402344 132.175781 19.890625 132.175781 19.3125 Z M 148.039062 22.90625 C 147.050781 22.90625 146.175781 22.730469 145.402344 22.378906 C 144.632812 22.027344 143.980469 21.554688 143.453125 20.957031 C 142.921875 20.363281 142.515625 19.667969 142.238281 18.875 C 141.957031 18.085938 141.816406 17.25 141.816406 16.367188 C 141.816406 15.363281 141.996094 14.417969 142.351562 13.535156 C 142.703125 12.652344 143.199219 11.875 143.832031 11.214844 C 144.460938 10.550781 145.210938 10.03125 146.082031 9.648438 C 146.953125 9.269531 147.898438 9.078125 148.917969 9.078125 C 149.910156 9.078125 150.796875 9.253906 151.574219 9.613281 C 152.351562 9.96875 153.003906 10.449219 153.535156 11.054688 C 154.066406 11.65625 154.472656 12.351562 154.75 13.144531 C 155.027344 13.9375 155.164062 14.769531 155.164062 15.640625 C 155.164062 16.65625 154.984375 17.605469 154.625 18.488281 C 154.265625 19.371094 153.765625 20.140625 153.128906 20.796875 C 152.492188 21.449219 151.742188 21.964844 150.875 22.339844 C 150.003906 22.71875 149.058594 22.90625 148.039062 22.90625 Z M 148.5625 20.996094 C 149.175781 20.996094 149.730469 20.875 150.226562 20.628906 C 150.722656 20.378906 151.152344 20.042969 151.507812 19.613281 C 151.863281 19.1875 152.136719 18.683594 152.332031 18.097656 C 152.527344 17.515625 152.625 16.886719 152.625 16.21875 C 152.625 15.558594 152.53125 14.914062 152.339844 14.289062 C 152.148438 13.664062 151.871094 13.105469 151.507812 12.621094 C 151.144531 12.128906 150.699219 11.734375 150.171875 11.4375 C 149.644531 11.136719 149.050781 10.988281 148.386719 10.988281 C 147.777344 10.988281 147.226562 11.109375 146.730469 11.359375 C 146.230469 11.605469 145.800781 11.945312 145.449219 12.378906 C 145.09375 12.808594 144.816406 13.320312 144.621094 13.90625 C 144.425781 14.496094 144.324219 15.121094 144.324219 15.792969 C 144.324219 16.453125 144.421875 17.097656 144.613281 17.722656 C 144.804688 18.347656 145.082031 18.902344 145.449219 19.386719 C 145.8125 19.875 146.253906 20.261719 146.773438 20.554688 C 147.300781 20.851562 147.894531 20.996094 148.5625 20.996094 Z M 168.003906 18.859375 L 168.003906 11.617188 C 167.386719 11.347656 166.832031 11.175781 166.335938 11.101562 C 165.84375 11.027344 165.4375 10.988281 165.121094 10.988281 C 164.375 10.988281 163.710938 11.109375 163.132812 11.359375 C 162.550781 11.605469 162.058594 11.953125 161.65625 12.398438 C 161.257812 12.839844 160.953125 13.375 160.742188 13.996094 C 160.535156 14.617188 160.429688 15.300781 160.429688 16.042969 C 160.429688 16.695312 160.515625 17.316406 160.691406 17.902344 C 160.867188 18.488281 161.117188 19.003906 161.441406 19.449219 C 161.769531 19.894531 162.164062 20.246094 162.625 20.507812 C 163.082031 20.765625 163.597656 20.894531 164.164062 20.894531 C 164.84375 20.894531 165.503906 20.710938 166.144531 20.347656 C 166.78125 19.984375 167.398438 19.488281 168.003906 18.859375 Z M 168.003906 9.40625 L 168.003906 2.515625 L 170.386719 2.515625 L 170.386719 22.65625 L 168.53125 22.65625 L 168.15625 20.34375 C 167.871094 20.613281 167.554688 20.894531 167.199219 21.195312 C 166.847656 21.488281 166.460938 21.765625 166.035156 22.023438 C 165.605469 22.277344 165.144531 22.488281 164.648438 22.65625 C 164.152344 22.824219 163.621094 22.90625 163.058594 22.90625 C 162.257812 22.90625 161.539062 22.730469 160.902344 22.371094 C 160.269531 22.015625 159.730469 21.542969 159.285156 20.953125 C 158.84375 20.359375 158.503906 19.683594 158.273438 18.921875 C 158.035156 18.160156 157.917969 17.367188 157.917969 16.542969 C 157.917969 15.464844 158.113281 14.46875 158.503906 13.550781 C 158.890625 12.640625 159.421875 11.851562 160.101562 11.1875 C 160.78125 10.53125 161.574219 10.011719 162.484375 9.636719 C 163.394531 9.265625 164.375 9.078125 165.417969 9.078125 C 165.921875 9.078125 166.394531 9.113281 166.832031 9.183594 C 167.269531 9.257812 167.660156 9.332031 168.003906 9.40625 Z M 180.191406 22.90625 C 179.207031 22.90625 178.328125 22.730469 177.558594 22.378906 C 176.789062 22.027344 176.140625 21.554688 175.609375 20.957031 C 175.078125 20.363281 174.675781 19.667969 174.394531 18.875 C 174.113281 18.085938 173.972656 17.25 173.972656 16.367188 C 173.972656 15.363281 174.148438 14.417969 174.507812 13.535156 C 174.863281 12.652344 175.355469 11.875 175.984375 11.214844 C 176.617188 10.550781 177.367188 10.03125 178.234375 9.648438 C 179.105469 9.269531 180.050781 9.078125 181.070312 9.078125 C 182.066406 9.078125 182.953125 9.253906 183.734375 9.613281 C 184.511719 9.96875 185.164062 10.449219 185.695312 11.054688 C 186.226562 11.65625 186.628906 12.351562 186.902344 13.144531 C 187.179688 13.9375 187.320312 14.769531 187.320312 15.640625 C 187.320312 16.65625 187.136719 17.605469 186.777344 18.488281 C 186.417969 19.371094 185.921875 20.140625 185.285156 20.796875 C 184.652344 21.449219 183.898438 21.964844 183.027344 22.339844 C 182.160156 22.71875 181.214844 22.90625 180.191406 22.90625 Z M 180.722656 20.996094 C 181.332031 20.996094 181.886719 20.875 182.382812 20.628906 C 182.878906 20.378906 183.304688 20.042969 183.660156 19.613281 C 184.015625 19.1875 184.292969 18.683594 184.488281 18.097656 C 184.6875 17.515625 184.785156 16.886719 184.785156 16.21875 C 184.785156 15.558594 184.6875 14.914062 184.492188 14.289062 C 184.300781 13.664062 184.023438 13.105469 183.660156 12.621094 C 183.296875 12.128906 182.851562 11.734375 182.324219 11.4375 C 181.796875 11.136719 181.203125 10.988281 180.542969 10.988281 C 179.933594 10.988281 179.378906 11.109375 178.882812 11.359375 C 178.386719 11.605469 177.960938 11.945312 177.605469 12.378906 C 177.246094 12.808594 176.972656 13.320312 176.777344 13.90625 C 176.578125 14.496094 176.480469 15.121094 176.480469 15.792969 C 176.480469 16.453125 176.578125 17.097656 176.773438 17.722656 C 176.964844 18.347656 177.242188 18.902344 177.605469 19.386719 C 177.96875 19.875 178.410156 20.261719 178.933594 20.554688 C 179.453125 20.851562 180.050781 20.996094 180.722656 20.996094 Z M 190.078125 22.054688 L 190.574219 20.039062 L 190.800781 19.890625 C 191.121094 20.066406 191.457031 20.222656 191.808594 20.359375 C 192.15625 20.5 192.503906 20.617188 192.847656 20.710938 C 193.1875 20.796875 193.527344 20.867188 193.859375 20.921875 C 194.1875 20.972656 194.492188 20.996094 194.777344 20.996094 C 195.171875 20.996094 195.53125 20.953125 195.855469 20.859375 C 196.183594 20.765625 196.460938 20.636719 196.6875 20.46875 C 196.921875 20.300781 197.101562 20.097656 197.226562 19.863281 C 197.359375 19.632812 197.421875 19.371094 197.421875 19.085938 C 197.421875 18.726562 197.324219 18.425781 197.125 18.1875 C 196.921875 17.945312 196.660156 17.738281 196.335938 17.566406 C 196.007812 17.398438 195.636719 17.25 195.21875 17.125 C 194.800781 17 194.375 16.867188 193.941406 16.734375 C 193.503906 16.601562 193.078125 16.449219 192.660156 16.28125 C 192.242188 16.113281 191.871094 15.902344 191.542969 15.648438 C 191.214844 15.390625 190.953125 15.078125 190.75 14.714844 C 190.550781 14.351562 190.453125 13.90625 190.453125 13.375 C 190.453125 12.789062 190.582031 12.234375 190.84375 11.714844 C 191.097656 11.1875 191.460938 10.730469 191.929688 10.34375 C 192.402344 9.953125 192.960938 9.644531 193.617188 9.417969 C 194.273438 9.191406 195.003906 9.078125 195.804688 9.078125 C 196 9.078125 196.230469 9.085938 196.5 9.101562 C 196.765625 9.121094 197.050781 9.148438 197.351562 9.183594 C 197.652344 9.222656 197.960938 9.273438 198.269531 9.335938 C 198.585938 9.398438 198.890625 9.476562 199.179688 9.566406 L 198.675781 11.527344 L 198.378906 11.707031 C 198.140625 11.582031 197.886719 11.472656 197.609375 11.378906 C 197.328125 11.285156 197.042969 11.210938 196.753906 11.15625 C 196.464844 11.101562 196.183594 11.0625 195.90625 11.035156 C 195.628906 11.003906 195.386719 10.988281 195.179688 10.988281 C 194.792969 10.988281 194.445312 11.03125 194.128906 11.117188 C 193.820312 11.199219 193.550781 11.316406 193.324219 11.472656 C 193.097656 11.628906 192.921875 11.820312 192.792969 12.039062 C 192.671875 12.261719 192.609375 12.515625 192.609375 12.800781 C 192.609375 13.167969 192.710938 13.472656 192.90625 13.714844 C 193.109375 13.960938 193.378906 14.167969 193.714844 14.339844 C 194.046875 14.511719 194.425781 14.660156 194.847656 14.789062 C 195.269531 14.910156 195.703125 15.039062 196.144531 15.175781 C 196.589844 15.308594 197.023438 15.457031 197.445312 15.628906 C 197.863281 15.796875 198.242188 16.011719 198.578125 16.269531 C 198.914062 16.527344 199.183594 16.84375 199.378906 17.21875 C 199.582031 17.59375 199.683594 18.046875 199.683594 18.582031 C 199.683594 19.210938 199.542969 19.789062 199.261719 20.316406 C 198.980469 20.847656 198.597656 21.304688 198.105469 21.6875 C 197.621094 22.070312 197.046875 22.371094 196.390625 22.589844 C 195.734375 22.800781 195.03125 22.90625 194.28125 22.90625 C 193.636719 22.90625 192.945312 22.832031 192.214844 22.679688 C 191.480469 22.53125 190.769531 22.320312 190.078125 22.054688 Z M 190.078125 22.054688 "/>
</g>
<g clip-path="url(#clip2)" clip-rule="nonzero">
<path style=" stroke:none;fill-rule:nonzero;fill:rgb(0%,0%,0%);fill-opacity:1;" d="M 50.949219 37.757812 C 50.273438 37.769531 49.683594 37.660156 49.1875 37.4375 C 48.6875 37.214844 48.210938 36.878906 47.757812 36.433594 C 47.714844 36.398438 47.675781 36.355469 47.644531 36.300781 C 47.613281 36.246094 47.597656 36.183594 47.597656 36.113281 C 47.597656 36.003906 47.640625 35.90625 47.722656 35.816406 C 47.808594 35.730469 47.90625 35.683594 48.011719 35.683594 C 48.117188 35.683594 48.214844 35.730469 48.304688 35.816406 C 48.652344 36.191406 49.046875 36.480469 49.488281 36.675781 C 49.929688 36.871094 50.402344 36.96875 50.910156 36.96875 C 51.335938 36.96875 51.71875 36.902344 52.050781 36.769531 C 52.386719 36.632812 52.648438 36.441406 52.84375 36.191406 C 53.039062 35.941406 53.140625 35.652344 53.140625 35.324219 C 53.140625 34.914062 53.027344 34.578125 52.804688 34.324219 C 52.582031 34.070312 52.289062 33.863281 51.921875 33.695312 C 51.558594 33.53125 51.152344 33.382812 50.707031 33.25 C 50.34375 33.140625 49.996094 33.019531 49.667969 32.878906 C 49.339844 32.742188 49.042969 32.574219 48.785156 32.371094 C 48.527344 32.171875 48.328125 31.925781 48.183594 31.628906 C 48.042969 31.335938 47.972656 30.976562 47.972656 30.558594 C 47.972656 30.085938 48.097656 29.667969 48.34375 29.300781 C 48.59375 28.933594 48.949219 28.648438 49.410156 28.4375 C 49.867188 28.226562 50.398438 28.125 51.003906 28.125 C 51.527344 28.125 52.035156 28.210938 52.519531 28.390625 C 53.003906 28.570312 53.386719 28.832031 53.671875 29.179688 C 53.804688 29.324219 53.875 29.453125 53.875 29.570312 C 53.875 29.65625 53.828125 29.746094 53.738281 29.835938 C 53.652344 29.925781 53.550781 29.96875 53.445312 29.96875 C 53.355469 29.96875 53.28125 29.9375 53.21875 29.875 C 53.066406 29.6875 52.875 29.519531 52.644531 29.375 C 52.414062 29.226562 52.15625 29.113281 51.875 29.035156 C 51.597656 28.953125 51.304688 28.914062 51.003906 28.914062 C 50.585938 28.914062 50.207031 28.976562 49.875 29.105469 C 49.539062 29.234375 49.277344 29.421875 49.089844 29.664062 C 48.894531 29.902344 48.800781 30.191406 48.800781 30.53125 C 48.800781 30.90625 48.90625 31.214844 49.121094 31.457031 C 49.332031 31.695312 49.613281 31.894531 49.960938 32.050781 C 50.308594 32.207031 50.675781 32.351562 51.070312 32.484375 C 51.453125 32.59375 51.820312 32.714844 52.171875 32.855469 C 52.523438 32.992188 52.835938 33.164062 53.105469 33.371094 C 53.378906 33.574219 53.589844 33.832031 53.746094 34.144531 C 53.902344 34.457031 53.980469 34.851562 53.980469 35.324219 C 53.980469 35.777344 53.851562 36.1875 53.59375 36.554688 C 53.335938 36.921875 52.980469 37.210938 52.53125 37.425781 C 52.082031 37.636719 51.554688 37.75 50.949219 37.757812 Z M 58.746094 30.734375 C 59.296875 30.734375 59.769531 30.878906 60.160156 31.167969 C 60.554688 31.457031 60.820312 31.886719 60.960938 32.460938 L 60.777344 32.511719 L 60.855469 32.273438 C 60.972656 32.003906 61.164062 31.75 61.433594 31.515625 C 61.707031 31.277344 62.015625 31.089844 62.363281 30.945312 C 62.710938 30.804688 63.0625 30.734375 63.417969 30.734375 C 63.980469 30.734375 64.429688 30.851562 64.773438 31.09375 C 65.117188 31.335938 65.367188 31.65625 65.519531 32.0625 C 65.675781 32.46875 65.753906 32.925781 65.753906 33.4375 L 65.753906 37.222656 C 65.753906 37.332031 65.71875 37.425781 65.640625 37.503906 C 65.566406 37.585938 65.472656 37.625 65.355469 37.625 C 65.238281 37.625 65.144531 37.585938 65.066406 37.503906 C 64.992188 37.425781 64.953125 37.332031 64.953125 37.222656 L 64.953125 33.476562 C 64.953125 33.109375 64.898438 32.777344 64.78125 32.472656 C 64.664062 32.167969 64.484375 31.929688 64.234375 31.75 C 63.984375 31.570312 63.652344 31.480469 63.230469 31.480469 C 62.867188 31.480469 62.519531 31.570312 62.183594 31.75 C 61.851562 31.929688 61.578125 32.167969 61.367188 32.472656 C 61.160156 32.777344 61.054688 33.109375 61.054688 33.476562 L 61.054688 37.222656 C 61.054688 37.332031 61.019531 37.425781 60.941406 37.503906 C 60.867188 37.585938 60.769531 37.625 60.65625 37.625 C 60.539062 37.625 60.445312 37.585938 60.367188 37.503906 C 60.292969 37.425781 60.253906 37.332031 60.253906 37.222656 L 60.253906 33.4375 C 60.253906 33.070312 60.203125 32.742188 60.09375 32.445312 C 59.988281 32.152344 59.816406 31.917969 59.574219 31.742188 C 59.332031 31.570312 59.007812 31.480469 58.597656 31.480469 C 58.234375 31.480469 57.890625 31.570312 57.5625 31.742188 C 57.238281 31.917969 56.976562 32.152344 56.777344 32.445312 C 56.578125 32.742188 56.476562 33.070312 56.476562 33.4375 L 56.476562 37.222656 C 56.476562 37.332031 56.4375 37.425781 56.355469 37.503906 C 56.277344 37.585938 56.183594 37.625 56.074219 37.625 C 55.953125 37.625 55.855469 37.585938 55.78125 37.503906 C 55.710938 37.425781 55.675781 37.332031 55.675781 37.222656 L 55.675781 31.226562 C 55.675781 31.121094 55.714844 31.027344 55.789062 30.945312 C 55.863281 30.867188 55.960938 30.828125 56.074219 30.828125 C 56.191406 30.828125 56.285156 30.867188 56.363281 30.945312 C 56.4375 31.027344 56.476562 31.121094 56.476562 31.226562 L 56.476562 32.472656 L 56.117188 32.96875 C 56.144531 32.699219 56.230469 32.433594 56.375 32.164062 C 56.523438 31.898438 56.71875 31.65625 56.957031 31.441406 C 57.199219 31.226562 57.472656 31.054688 57.777344 30.925781 C 58.085938 30.796875 58.40625 30.734375 58.746094 30.734375 Z M 73.394531 30.785156 C 73.507812 30.785156 73.605469 30.828125 73.679688 30.90625 C 73.753906 30.988281 73.792969 31.085938 73.792969 31.203125 L 73.792969 37.222656 C 73.792969 37.332031 73.753906 37.425781 73.671875 37.503906 C 73.59375 37.585938 73.5 37.625 73.394531 37.625 C 73.269531 37.625 73.171875 37.585938 73.097656 37.503906 C 73.027344 37.425781 72.992188 37.332031 72.992188 37.222656 L 72.992188 35.632812 L 73.21875 35.523438 C 73.21875 35.773438 73.148438 36.027344 73.011719 36.285156 C 72.875 36.546875 72.683594 36.785156 72.445312 37.007812 C 72.203125 37.234375 71.921875 37.414062 71.597656 37.550781 C 71.273438 37.6875 70.917969 37.757812 70.535156 37.757812 C 69.9375 37.757812 69.402344 37.601562 68.925781 37.289062 C 68.449219 36.976562 68.078125 36.550781 67.804688 36.003906 C 67.535156 35.460938 67.398438 34.851562 67.398438 34.171875 C 67.398438 33.476562 67.535156 32.863281 67.8125 32.332031 C 68.089844 31.800781 68.460938 31.382812 68.933594 31.082031 C 69.40625 30.777344 69.933594 30.625 70.523438 30.625 C 70.90625 30.625 71.261719 30.691406 71.597656 30.828125 C 71.929688 30.960938 72.222656 31.144531 72.472656 31.375 C 72.722656 31.605469 72.917969 31.871094 73.058594 32.171875 C 73.203125 32.46875 73.273438 32.78125 73.273438 33.101562 L 72.992188 32.902344 L 72.992188 31.203125 C 72.992188 31.085938 73.027344 30.988281 73.097656 30.90625 C 73.171875 30.828125 73.269531 30.785156 73.394531 30.785156 Z M 70.617188 37.007812 C 71.085938 37.007812 71.507812 36.886719 71.871094 36.640625 C 72.234375 36.394531 72.523438 36.054688 72.730469 35.621094 C 72.941406 35.191406 73.046875 34.707031 73.046875 34.171875 C 73.046875 33.644531 72.941406 33.171875 72.730469 32.753906 C 72.523438 32.335938 72.234375 32 71.871094 31.75 C 71.507812 31.5 71.085938 31.375 70.617188 31.375 C 70.152344 31.375 69.738281 31.496094 69.367188 31.738281 C 68.996094 31.976562 68.707031 32.308594 68.5 32.726562 C 68.289062 33.144531 68.1875 33.628906 68.1875 34.171875 C 68.1875 34.707031 68.289062 35.191406 68.492188 35.621094 C 68.699219 36.054688 68.984375 36.394531 69.351562 36.640625 C 69.722656 36.886719 70.144531 37.007812 70.617188 37.007812 Z M 76.289062 37.625 C 76.164062 37.625 76.066406 37.585938 75.992188 37.503906 C 75.921875 37.425781 75.886719 37.332031 75.886719 37.222656 L 75.886719 31.226562 C 75.886719 31.121094 75.925781 31.027344 76 30.945312 C 76.078125 30.867188 76.171875 30.828125 76.289062 30.828125 C 76.402344 30.828125 76.5 30.867188 76.574219 30.945312 C 76.652344 31.027344 76.6875 31.121094 76.6875 31.226562 L 76.6875 33.234375 L 76.488281 33.277344 C 76.515625 32.964844 76.59375 32.652344 76.722656 32.34375 C 76.851562 32.039062 77.027344 31.753906 77.25 31.496094 C 77.472656 31.238281 77.738281 31.027344 78.042969 30.867188 C 78.351562 30.707031 78.695312 30.625 79.078125 30.625 C 79.238281 30.625 79.394531 30.660156 79.546875 30.726562 C 79.695312 30.792969 79.773438 30.902344 79.773438 31.054688 C 79.773438 31.1875 79.738281 31.289062 79.664062 31.363281 C 79.59375 31.433594 79.507812 31.46875 79.410156 31.46875 C 79.332031 31.46875 79.246094 31.445312 79.152344 31.402344 C 79.058594 31.359375 78.933594 31.335938 78.785156 31.335938 C 78.535156 31.335938 78.285156 31.410156 78.035156 31.554688 C 77.789062 31.703125 77.558594 31.902344 77.355469 32.152344 C 77.152344 32.402344 76.988281 32.679688 76.871094 32.988281 C 76.75 33.296875 76.6875 33.605469 76.6875 33.917969 L 76.6875 37.222656 C 76.6875 37.332031 76.648438 37.425781 76.566406 37.503906 C 76.488281 37.585938 76.394531 37.625 76.289062 37.625 Z M 80.585938 30.8125 L 83.699219 30.8125 C 83.804688 30.8125 83.894531 30.851562 83.964844 30.925781 C 84.035156 31.003906 84.070312 31.09375 84.070312 31.203125 C 84.070312 31.300781 84.035156 31.382812 83.964844 31.457031 C 83.894531 31.527344 83.804688 31.5625 83.699219 31.5625 L 80.585938 31.5625 C 80.480469 31.5625 80.390625 31.523438 80.3125 31.449219 C 80.238281 31.371094 80.199219 31.285156 80.199219 31.1875 C 80.199219 31.082031 80.238281 30.992188 80.3125 30.921875 C 80.390625 30.847656 80.480469 30.8125 80.585938 30.8125 Z M 81.960938 28.925781 C 82.078125 28.925781 82.171875 28.964844 82.25 29.046875 C 82.324219 29.128906 82.363281 29.222656 82.363281 29.328125 L 82.363281 36.046875 C 82.363281 36.296875 82.394531 36.484375 82.464844 36.609375 C 82.53125 36.734375 82.617188 36.816406 82.722656 36.855469 C 82.828125 36.894531 82.9375 36.914062 83.042969 36.914062 C 83.113281 36.914062 83.179688 36.902344 83.238281 36.882812 C 83.296875 36.859375 83.359375 36.847656 83.429688 36.847656 C 83.511719 36.847656 83.578125 36.878906 83.640625 36.941406 C 83.695312 37.003906 83.722656 37.085938 83.722656 37.183594 C 83.722656 37.308594 83.652344 37.414062 83.511719 37.496094 C 83.367188 37.582031 83.199219 37.625 83.003906 37.625 C 82.921875 37.625 82.804688 37.617188 82.644531 37.605469 C 82.484375 37.589844 82.316406 37.542969 82.148438 37.457031 C 81.980469 37.371094 81.839844 37.222656 81.730469 37.007812 C 81.617188 36.796875 81.5625 36.488281 81.5625 36.085938 L 81.5625 29.328125 C 81.5625 29.222656 81.597656 29.128906 81.675781 29.046875 C 81.75 28.964844 81.847656 28.925781 81.960938 28.925781 Z M 86.433594 28.125 L 86.433594 37.222656 C 86.433594 37.332031 86.394531 37.425781 86.3125 37.503906 C 86.234375 37.585938 86.140625 37.625 86.035156 37.625 C 85.917969 37.625 85.820312 37.585938 85.746094 37.503906 C 85.671875 37.425781 85.632812 37.332031 85.632812 37.222656 L 85.632812 28.125 C 85.632812 28.015625 85.671875 27.921875 85.753906 27.84375 C 85.832031 27.761719 85.925781 27.722656 86.035156 27.722656 C 86.148438 27.722656 86.246094 27.761719 86.320312 27.84375 C 86.394531 27.921875 86.433594 28.015625 86.433594 28.125 Z M 93.511719 30.667969 C 93.625 30.667969 93.722656 30.707031 93.796875 30.785156 C 93.875 30.867188 93.910156 30.960938 93.910156 31.066406 L 93.910156 36.96875 C 93.910156 37.691406 93.769531 38.300781 93.484375 38.796875 C 93.199219 39.292969 92.816406 39.667969 92.335938 39.921875 C 91.855469 40.175781 91.308594 40.300781 90.695312 40.300781 C 90.3125 40.300781 89.957031 40.257812 89.632812 40.175781 C 89.308594 40.089844 89.042969 39.980469 88.835938 39.847656 C 88.730469 39.785156 88.652344 39.707031 88.597656 39.617188 C 88.542969 39.53125 88.539062 39.4375 88.585938 39.339844 C 88.628906 39.214844 88.695312 39.132812 88.789062 39.089844 C 88.882812 39.050781 88.980469 39.050781 89.078125 39.097656 C 89.230469 39.175781 89.449219 39.277344 89.730469 39.390625 C 90.015625 39.507812 90.34375 39.566406 90.707031 39.566406 C 91.195312 39.566406 91.621094 39.460938 91.980469 39.257812 C 92.34375 39.050781 92.621094 38.757812 92.816406 38.367188 C 93.011719 37.980469 93.109375 37.519531 93.109375 36.984375 L 93.109375 36.019531 L 93.203125 36.339844 C 93.070312 36.617188 92.878906 36.863281 92.636719 37.078125 C 92.390625 37.289062 92.109375 37.457031 91.792969 37.578125 C 91.480469 37.699219 91.144531 37.757812 90.789062 37.757812 C 90.253906 37.757812 89.808594 37.648438 89.457031 37.429688 C 89.105469 37.210938 88.847656 36.910156 88.675781 36.527344 C 88.507812 36.144531 88.425781 35.695312 88.425781 35.175781 L 88.425781 31.066406 C 88.425781 30.960938 88.460938 30.867188 88.53125 30.785156 C 88.601562 30.707031 88.699219 30.667969 88.824219 30.667969 C 88.941406 30.667969 89.035156 30.707031 89.109375 30.785156 C 89.1875 30.867188 89.226562 30.960938 89.226562 31.066406 L 89.226562 35.054688 C 89.226562 35.679688 89.359375 36.160156 89.632812 36.5 C 89.902344 36.839844 90.347656 37.007812 90.960938 37.007812 C 91.34375 37.007812 91.695312 36.917969 92.015625 36.734375 C 92.335938 36.550781 92.597656 36.3125 92.804688 36.011719 C 93.007812 35.714844 93.109375 35.394531 93.109375 35.054688 L 93.109375 31.066406 C 93.109375 30.960938 93.148438 30.867188 93.222656 30.785156 C 93.300781 30.707031 93.394531 30.667969 93.511719 30.667969 Z M 99.210938 30.8125 L 102.320312 30.8125 C 102.425781 30.8125 102.515625 30.851562 102.585938 30.925781 C 102.660156 31.003906 102.695312 31.09375 102.695312 31.203125 C 102.695312 31.300781 102.660156 31.382812 102.585938 31.457031 C 102.515625 31.527344 102.425781 31.5625 102.320312 31.5625 L 99.210938 31.5625 C 99.101562 31.5625 99.011719 31.523438 98.9375 31.449219 C 98.859375 31.371094 98.820312 31.285156 98.820312 31.1875 C 98.820312 31.082031 98.859375 30.992188 98.9375 30.921875 C 99.011719 30.847656 99.101562 30.8125 99.210938 30.8125 Z M 100.585938 28.925781 C 100.699219 28.925781 100.796875 28.964844 100.871094 29.046875 C 100.949219 29.128906 100.984375 29.222656 100.984375 29.328125 L 100.984375 36.046875 C 100.984375 36.296875 101.019531 36.484375 101.085938 36.609375 C 101.152344 36.734375 101.238281 36.816406 101.34375 36.855469 C 101.453125 36.894531 101.558594 36.914062 101.664062 36.914062 C 101.738281 36.914062 101.800781 36.902344 101.859375 36.882812 C 101.917969 36.859375 101.980469 36.847656 102.054688 36.847656 C 102.132812 36.847656 102.203125 36.878906 102.261719 36.941406 C 102.316406 37.003906 102.347656 37.085938 102.347656 37.183594 C 102.347656 37.308594 102.277344 37.414062 102.132812 37.496094 C 101.992188 37.582031 101.820312 37.625 101.625 37.625 C 101.546875 37.625 101.425781 37.617188 101.265625 37.605469 C 101.105469 37.589844 100.941406 37.542969 100.769531 37.457031 C 100.601562 37.371094 100.460938 37.222656 100.351562 37.007812 C 100.238281 36.796875 100.183594 36.488281 100.183594 36.085938 L 100.183594 29.328125 C 100.183594 29.222656 100.222656 29.128906 100.296875 29.046875 C 100.375 28.964844 100.46875 28.925781 100.585938 28.925781 Z M 104.578125 37.625 C 104.453125 37.625 104.355469 37.585938 104.28125 37.503906 C 104.210938 37.425781 104.175781 37.332031 104.175781 37.222656 L 104.175781 31.226562 C 104.175781 31.121094 104.214844 31.027344 104.289062 30.945312 C 104.363281 30.867188 104.460938 30.828125 104.578125 30.828125 C 104.691406 30.828125 104.789062 30.867188 104.863281 30.945312 C 104.9375 31.027344 104.976562 31.121094 104.976562 31.226562 L 104.976562 33.234375 L 104.777344 33.277344 C 104.804688 32.964844 104.882812 32.652344 105.007812 32.34375 C 105.140625 32.039062 105.316406 31.753906 105.539062 31.496094 C 105.761719 31.238281 106.023438 31.027344 106.332031 30.867188 C 106.640625 30.707031 106.984375 30.625 107.367188 30.625 C 107.527344 30.625 107.683594 30.660156 107.835938 30.726562 C 107.984375 30.792969 108.0625 30.902344 108.0625 31.054688 C 108.0625 31.1875 108.027344 31.289062 107.953125 31.363281 C 107.882812 31.433594 107.796875 31.46875 107.699219 31.46875 C 107.621094 31.46875 107.535156 31.445312 107.4375 31.402344 C 107.347656 31.359375 107.222656 31.335938 107.074219 31.335938 C 106.824219 31.335938 106.574219 31.410156 106.324219 31.554688 C 106.078125 31.703125 105.847656 31.902344 105.644531 32.152344 C 105.441406 32.402344 105.277344 32.679688 105.15625 32.988281 C 105.035156 33.296875 104.976562 33.605469 104.976562 33.917969 L 104.976562 37.222656 C 104.976562 37.332031 104.9375 37.425781 104.855469 37.503906 C 104.777344 37.585938 104.683594 37.625 104.578125 37.625 Z M 114.695312 30.785156 C 114.8125 30.785156 114.90625 30.828125 114.984375 30.90625 C 115.058594 30.988281 115.097656 31.085938 115.097656 31.203125 L 115.097656 37.222656 C 115.097656 37.332031 115.058594 37.425781 114.976562 37.503906 C 114.898438 37.585938 114.804688 37.625 114.695312 37.625 C 114.570312 37.625 114.472656 37.585938 114.402344 37.503906 C 114.332031 37.425781 114.296875 37.332031 114.296875 37.222656 L 114.296875 35.632812 L 114.523438 35.523438 C 114.523438 35.773438 114.453125 36.027344 114.316406 36.285156 C 114.179688 36.546875 113.988281 36.785156 113.75 37.007812 C 113.507812 37.234375 113.226562 37.414062 112.898438 37.550781 C 112.574219 37.6875 112.222656 37.757812 111.839844 37.757812 C 111.242188 37.757812 110.707031 37.601562 110.230469 37.289062 C 109.753906 36.976562 109.378906 36.550781 109.109375 36.003906 C 108.835938 35.460938 108.703125 34.851562 108.703125 34.171875 C 108.703125 33.476562 108.839844 32.863281 109.117188 32.332031 C 109.390625 31.800781 109.765625 31.382812 110.238281 31.082031 C 110.710938 30.777344 111.238281 30.625 111.828125 30.625 C 112.210938 30.625 112.566406 30.691406 112.898438 30.828125 C 113.234375 30.960938 113.527344 31.144531 113.777344 31.375 C 114.023438 31.605469 114.21875 31.871094 114.363281 32.171875 C 114.503906 32.46875 114.578125 32.78125 114.578125 33.101562 L 114.296875 32.902344 L 114.296875 31.203125 C 114.296875 31.085938 114.332031 30.988281 114.402344 30.90625 C 114.472656 30.828125 114.570312 30.785156 114.695312 30.785156 Z M 111.917969 37.007812 C 112.390625 37.007812 112.808594 36.886719 113.175781 36.640625 C 113.539062 36.394531 113.828125 36.054688 114.035156 35.621094 C 114.246094 35.191406 114.351562 34.707031 114.351562 34.171875 C 114.351562 33.644531 114.246094 33.171875 114.035156 32.753906 C 113.828125 32.335938 113.539062 32 113.175781 31.75 C 112.808594 31.5 112.390625 31.375 111.917969 31.375 C 111.457031 31.375 111.039062 31.496094 110.671875 31.738281 C 110.300781 31.976562 110.011719 32.308594 109.800781 32.726562 C 109.59375 33.144531 109.488281 33.628906 109.488281 34.171875 C 109.488281 34.707031 109.59375 35.191406 109.796875 35.621094 C 110 36.054688 110.289062 36.394531 110.65625 36.640625 C 111.027344 36.886719 111.449219 37.007812 111.917969 37.007812 Z M 120.140625 30.625 C 120.570312 30.625 120.960938 30.671875 121.316406 30.765625 C 121.671875 30.859375 121.960938 30.988281 122.179688 31.148438 C 122.394531 31.308594 122.503906 31.480469 122.503906 31.667969 C 122.503906 31.757812 122.472656 31.84375 122.40625 31.929688 C 122.339844 32.015625 122.253906 32.058594 122.15625 32.058594 C 122.042969 32.058594 121.949219 32.03125 121.886719 31.976562 C 121.816406 31.925781 121.753906 31.863281 121.691406 31.789062 C 121.628906 31.71875 121.535156 31.652344 121.410156 31.589844 C 121.292969 31.535156 121.128906 31.488281 120.910156 31.441406 C 120.691406 31.398438 120.449219 31.375 120.179688 31.375 C 119.683594 31.375 119.234375 31.5 118.832031 31.75 C 118.433594 32 118.117188 32.335938 117.886719 32.757812 C 117.652344 33.183594 117.539062 33.660156 117.539062 34.1875 C 117.539062 34.722656 117.648438 35.203125 117.867188 35.632812 C 118.082031 36.058594 118.390625 36.394531 118.789062 36.640625 C 119.183594 36.886719 119.636719 37.007812 120.15625 37.007812 C 120.511719 37.007812 120.789062 36.976562 120.992188 36.914062 C 121.191406 36.851562 121.355469 36.78125 121.488281 36.703125 C 121.667969 36.601562 121.796875 36.507812 121.871094 36.414062 C 121.945312 36.320312 122.046875 36.273438 122.171875 36.273438 C 122.277344 36.273438 122.363281 36.308594 122.425781 36.375 C 122.488281 36.441406 122.519531 36.527344 122.519531 36.632812 C 122.519531 36.777344 122.414062 36.933594 122.207031 37.109375 C 121.996094 37.285156 121.707031 37.433594 121.34375 37.5625 C 120.976562 37.695312 120.554688 37.757812 120.074219 37.757812 C 119.417969 37.757812 118.835938 37.601562 118.332031 37.289062 C 117.828125 36.976562 117.4375 36.550781 117.160156 36.011719 C 116.878906 35.472656 116.738281 34.863281 116.738281 34.1875 C 116.738281 33.535156 116.878906 32.941406 117.164062 32.40625 C 117.449219 31.871094 117.84375 31.441406 118.351562 31.113281 C 118.859375 30.789062 119.457031 30.625 120.140625 30.625 Z M 124.535156 37.625 C 124.417969 37.625 124.324219 37.585938 124.25 37.503906 C 124.171875 37.425781 124.132812 37.332031 124.132812 37.222656 L 124.132812 28.125 C 124.132812 28.015625 124.171875 27.921875 124.25 27.84375 C 124.324219 27.761719 124.417969 27.722656 124.535156 27.722656 C 124.648438 27.722656 124.746094 27.761719 124.824219 27.84375 C 124.898438 27.921875 124.933594 28.015625 124.933594 28.125 L 124.933594 37.222656 C 124.933594 37.332031 124.898438 37.425781 124.824219 37.503906 C 124.746094 37.585938 124.648438 37.625 124.535156 37.625 Z M 129.074219 30.757812 C 129.171875 30.757812 129.261719 30.800781 129.339844 30.886719 C 129.421875 30.972656 129.460938 31.0625 129.460938 31.160156 C 129.460938 31.277344 129.410156 31.378906 129.3125 31.46875 L 124.828125 35.296875 L 124.789062 34.347656 L 128.792969 30.894531 C 128.875 30.804688 128.96875 30.757812 129.074219 30.757812 Z M 129.179688 37.625 C 129.066406 37.625 128.96875 37.574219 128.886719 37.476562 L 125.84375 34.238281 L 126.445312 33.691406 L 129.460938 36.914062 C 129.539062 37.003906 129.582031 37.109375 129.582031 37.222656 C 129.582031 37.347656 129.53125 37.445312 129.433594 37.519531 C 129.335938 37.589844 129.25 37.625 129.179688 37.625 Z M 139.925781 30.667969 C 140.042969 30.667969 140.136719 30.707031 140.214844 30.785156 C 140.289062 30.867188 140.328125 30.960938 140.328125 31.066406 L 140.328125 36.96875 C 140.328125 37.691406 140.183594 38.300781 139.898438 38.796875 C 139.617188 39.292969 139.234375 39.667969 138.753906 39.921875 C 138.269531 40.175781 137.722656 40.300781 137.109375 40.300781 C 136.726562 40.300781 136.375 40.257812 136.046875 40.175781 C 135.722656 40.089844 135.457031 39.980469 135.253906 39.847656 C 135.144531 39.785156 135.066406 39.707031 135.015625 39.617188 C 134.960938 39.53125 134.957031 39.4375 135 39.339844 C 135.046875 39.214844 135.113281 39.132812 135.207031 39.089844 C 135.300781 39.050781 135.398438 39.050781 135.492188 39.097656 C 135.644531 39.175781 135.863281 39.277344 136.148438 39.390625 C 136.433594 39.507812 136.757812 39.566406 137.121094 39.566406 C 137.613281 39.566406 138.035156 39.460938 138.398438 39.257812 C 138.757812 39.050781 139.039062 38.757812 139.230469 38.367188 C 139.425781 37.980469 139.523438 37.519531 139.523438 36.984375 L 139.523438 36.019531 L 139.621094 36.339844 C 139.488281 36.617188 139.296875 36.863281 139.050781 37.078125 C 138.808594 37.289062 138.527344 37.457031 138.210938 37.578125 C 137.894531 37.699219 137.5625 37.757812 137.203125 37.757812 C 136.671875 37.757812 136.226562 37.648438 135.875 37.429688 C 135.523438 37.210938 135.261719 36.910156 135.09375 36.527344 C 134.921875 36.144531 134.839844 35.695312 134.839844 35.175781 L 134.839844 31.066406 C 134.839844 30.960938 134.875 30.867188 134.949219 30.785156 C 135.019531 30.707031 135.113281 30.667969 135.238281 30.667969 C 135.355469 30.667969 135.453125 30.707031 135.527344 30.785156 C 135.601562 30.867188 135.640625 30.960938 135.640625 31.066406 L 135.640625 35.054688 C 135.640625 35.679688 135.777344 36.160156 136.046875 36.5 C 136.320312 36.839844 136.761719 37.007812 137.375 37.007812 C 137.761719 37.007812 138.113281 36.917969 138.429688 36.734375 C 138.75 36.550781 139.015625 36.3125 139.222656 36.011719 C 139.421875 35.714844 139.523438 35.394531 139.523438 35.054688 L 139.523438 31.066406 C 139.523438 30.960938 139.5625 30.867188 139.640625 30.785156 C 139.714844 30.707031 139.8125 30.667969 139.925781 30.667969 Z M 148.65625 34.199219 C 148.65625 34.878906 148.507812 35.484375 148.210938 36.023438 C 147.914062 36.566406 147.507812 36.988281 147.003906 37.296875 C 146.496094 37.605469 145.921875 37.757812 145.28125 37.757812 C 144.648438 37.757812 144.078125 37.605469 143.566406 37.296875 C 143.050781 36.988281 142.648438 36.566406 142.351562 36.023438 C 142.050781 35.484375 141.902344 34.878906 141.902344 34.199219 C 141.902344 33.511719 142.050781 32.902344 142.351562 32.367188 C 142.648438 31.832031 143.050781 31.40625 143.566406 31.09375 C 144.078125 30.78125 144.648438 30.625 145.28125 30.625 C 145.921875 30.625 146.496094 30.78125 147.003906 31.09375 C 147.507812 31.40625 147.914062 31.832031 148.210938 32.367188 C 148.507812 32.902344 148.65625 33.511719 148.65625 34.199219 Z M 147.855469 34.199219 C 147.855469 33.65625 147.746094 33.171875 147.523438 32.746094 C 147.300781 32.324219 146.996094 31.988281 146.609375 31.742188 C 146.222656 31.496094 145.777344 31.375 145.28125 31.375 C 144.789062 31.375 144.351562 31.496094 143.964844 31.742188 C 143.578125 31.988281 143.269531 32.324219 143.042969 32.746094 C 142.816406 33.171875 142.703125 33.65625 142.703125 34.199219 C 142.703125 34.742188 142.816406 35.226562 143.042969 35.644531 C 143.269531 36.0625 143.578125 36.394531 143.964844 36.640625 C 144.351562 36.886719 144.789062 37.007812 145.28125 37.007812 C 145.777344 37.007812 146.222656 36.886719 146.609375 36.640625 C 146.996094 36.394531 147.300781 36.0625 147.523438 35.644531 C 147.746094 35.226562 147.855469 34.742188 147.855469 34.199219 Z M 155.398438 30.828125 C 155.515625 30.828125 155.609375 30.867188 155.6875 30.945312 C 155.761719 31.027344 155.800781 31.121094 155.800781 31.226562 L 155.800781 35.003906 C 155.800781 35.886719 155.550781 36.558594 155.054688 37.023438 C 154.554688 37.488281 153.882812 37.71875 153.035156 37.71875 C 152.199219 37.71875 151.535156 37.488281 151.042969 37.023438 C 150.546875 36.558594 150.300781 35.886719 150.300781 35.003906 L 150.300781 31.226562 C 150.300781 31.121094 150.335938 31.027344 150.410156 30.945312 C 150.488281 30.867188 150.585938 30.828125 150.699219 30.828125 C 150.816406 30.828125 150.910156 30.867188 150.984375 30.945312 C 151.0625 31.027344 151.101562 31.121094 151.101562 31.226562 L 151.101562 35.003906 C 151.101562 35.644531 151.273438 36.132812 151.613281 36.464844 C 151.957031 36.800781 152.429688 36.96875 153.035156 36.96875 C 153.652344 36.96875 154.132812 36.800781 154.480469 36.464844 C 154.824219 36.132812 155 35.644531 155 35.003906 L 155 31.226562 C 155 31.121094 155.035156 31.027344 155.105469 30.945312 C 155.175781 30.867188 155.277344 30.828125 155.398438 30.828125 Z M 158.296875 37.625 C 158.171875 37.625 158.074219 37.585938 158.003906 37.503906 C 157.933594 37.425781 157.898438 37.332031 157.898438 37.222656 L 157.898438 31.226562 C 157.898438 31.121094 157.933594 31.027344 158.007812 30.945312 C 158.085938 30.867188 158.179688 30.828125 158.296875 30.828125 C 158.414062 30.828125 158.507812 30.867188 158.582031 30.945312 C 158.660156 31.027344 158.699219 31.121094 158.699219 31.226562 L 158.699219 33.234375 L 158.496094 33.277344 C 158.523438 32.964844 158.601562 32.652344 158.730469 32.34375 C 158.859375 32.039062 159.035156 31.753906 159.257812 31.496094 C 159.480469 31.238281 159.746094 31.027344 160.050781 30.867188 C 160.359375 30.707031 160.703125 30.625 161.085938 30.625 C 161.246094 30.625 161.402344 30.660156 161.554688 30.726562 C 161.707031 30.792969 161.78125 30.902344 161.78125 31.054688 C 161.78125 31.1875 161.746094 31.289062 161.675781 31.363281 C 161.605469 31.433594 161.519531 31.46875 161.421875 31.46875 C 161.339844 31.46875 161.253906 31.445312 161.160156 31.402344 C 161.066406 31.359375 160.945312 31.335938 160.792969 31.335938 C 160.542969 31.335938 160.296875 31.410156 160.046875 31.554688 C 159.796875 31.703125 159.570312 31.902344 159.367188 32.152344 C 159.160156 32.402344 158.996094 32.679688 158.875 32.988281 C 158.757812 33.296875 158.699219 33.605469 158.699219 33.917969 L 158.699219 37.222656 C 158.699219 37.332031 158.65625 37.425781 158.578125 37.503906 C 158.496094 37.585938 158.402344 37.625 158.296875 37.625 Z M 166.238281 30.8125 L 169.351562 30.8125 C 169.457031 30.8125 169.546875 30.851562 169.617188 30.925781 C 169.6875 31.003906 169.722656 31.09375 169.722656 31.203125 C 169.722656 31.300781 169.6875 31.382812 169.617188 31.457031 C 169.546875 31.527344 169.457031 31.5625 169.351562 31.5625 L 166.238281 31.5625 C 166.132812 31.5625 166.042969 31.523438 165.964844 31.449219 C 165.890625 31.371094 165.851562 31.285156 165.851562 31.1875 C 165.851562 31.082031 165.890625 30.992188 165.964844 30.921875 C 166.042969 30.847656 166.132812 30.8125 166.238281 30.8125 Z M 167.613281 28.925781 C 167.730469 28.925781 167.824219 28.964844 167.902344 29.046875 C 167.976562 29.128906 168.015625 29.222656 168.015625 29.328125 L 168.015625 36.046875 C 168.015625 36.296875 168.046875 36.484375 168.117188 36.609375 C 168.183594 36.734375 168.269531 36.816406 168.375 36.855469 C 168.480469 36.894531 168.589844 36.914062 168.695312 36.914062 C 168.765625 36.914062 168.832031 36.902344 168.890625 36.882812 C 168.949219 36.859375 169.011719 36.847656 169.082031 36.847656 C 169.164062 36.847656 169.230469 36.878906 169.289062 36.941406 C 169.347656 37.003906 169.375 37.085938 169.375 37.183594 C 169.375 37.308594 169.304688 37.414062 169.164062 37.496094 C 169.019531 37.582031 168.851562 37.625 168.65625 37.625 C 168.574219 37.625 168.453125 37.617188 168.292969 37.605469 C 168.132812 37.589844 167.96875 37.542969 167.800781 37.457031 C 167.632812 37.371094 167.492188 37.222656 167.382812 37.007812 C 167.269531 36.796875 167.214844 36.488281 167.214844 36.085938 L 167.214844 29.328125 C 167.214844 29.222656 167.25 29.128906 167.328125 29.046875 C 167.402344 28.964844 167.5 28.925781 167.613281 28.925781 Z M 177.441406 34.199219 C 177.441406 34.878906 177.292969 35.484375 176.992188 36.023438 C 176.695312 36.566406 176.292969 36.988281 175.785156 37.296875 C 175.277344 37.605469 174.703125 37.757812 174.0625 37.757812 C 173.429688 37.757812 172.859375 37.605469 172.34375 37.296875 C 171.835938 36.988281 171.429688 36.566406 171.128906 36.023438 C 170.832031 35.484375 170.683594 34.878906 170.683594 34.199219 C 170.683594 33.511719 170.832031 32.902344 171.128906 32.367188 C 171.429688 31.832031 171.835938 31.40625 172.34375 31.09375 C 172.859375 30.78125 173.429688 30.625 174.0625 30.625 C 174.703125 30.625 175.277344 30.78125 175.785156 31.09375 C 176.292969 31.40625 176.695312 31.832031 176.992188 32.367188 C 177.292969 32.902344 177.441406 33.511719 177.441406 34.199219 Z M 176.640625 34.199219 C 176.640625 33.65625 176.527344 33.171875 176.304688 32.746094 C 176.082031 32.324219 175.777344 31.988281 175.390625 31.742188 C 175.003906 31.496094 174.5625 31.375 174.0625 31.375 C 173.574219 31.375 173.132812 31.496094 172.746094 31.742188 C 172.359375 31.988281 172.054688 32.324219 171.824219 32.746094 C 171.597656 33.171875 171.484375 33.65625 171.484375 34.199219 C 171.484375 34.742188 171.597656 35.226562 171.824219 35.644531 C 172.054688 36.0625 172.359375 36.394531 172.746094 36.640625 C 173.132812 36.886719 173.574219 37.007812 174.0625 37.007812 C 174.5625 37.007812 175.003906 36.886719 175.390625 36.640625 C 175.777344 36.394531 176.082031 36.0625 176.304688 35.644531 C 176.527344 35.226562 176.640625 34.742188 176.640625 34.199219 Z M 184.625 27.722656 C 184.738281 27.722656 184.835938 27.757812 184.910156 27.835938 C 184.984375 27.910156 185.023438 28.007812 185.023438 28.125 L 185.023438 37.222656 C 185.023438 37.332031 184.984375 37.425781 184.902344 37.503906 C 184.824219 37.585938 184.730469 37.625 184.625 37.625 C 184.5 37.625 184.402344 37.585938 184.328125 37.503906 C 184.257812 37.425781 184.222656 37.332031 184.222656 37.222656 L 184.222656 35.632812 L 184.449219 35.445312 C 184.449219 35.695312 184.382812 35.953125 184.25 36.226562 C 184.117188 36.5 183.925781 36.75 183.679688 36.984375 C 183.4375 37.214844 183.152344 37.402344 182.828125 37.542969 C 182.503906 37.6875 182.148438 37.757812 181.765625 37.757812 C 181.179688 37.757812 180.648438 37.601562 180.167969 37.289062 C 179.695312 36.976562 179.320312 36.554688 179.042969 36.019531 C 178.765625 35.484375 178.628906 34.871094 178.628906 34.1875 C 178.628906 33.507812 178.765625 32.898438 179.042969 32.359375 C 179.320312 31.820312 179.691406 31.394531 180.164062 31.085938 C 180.636719 30.78125 181.164062 30.625 181.753906 30.625 C 182.125 30.625 182.480469 30.691406 182.808594 30.828125 C 183.136719 30.960938 183.429688 31.144531 183.679688 31.375 C 183.9375 31.605469 184.136719 31.871094 184.28125 32.171875 C 184.429688 32.46875 184.503906 32.78125 184.503906 33.101562 L 184.222656 32.902344 L 184.222656 28.125 C 184.222656 28.015625 184.257812 27.921875 184.328125 27.84375 C 184.402344 27.761719 184.5 27.722656 184.625 27.722656 Z M 181.847656 37.007812 C 182.316406 37.007812 182.738281 36.886719 183.101562 36.640625 C 183.464844 36.394531 183.753906 36.0625 183.960938 35.636719 C 184.171875 35.214844 184.277344 34.730469 184.277344 34.1875 C 184.277344 33.648438 184.171875 33.171875 183.960938 32.746094 C 183.753906 32.324219 183.464844 31.988281 183.101562 31.742188 C 182.738281 31.496094 182.316406 31.375 181.847656 31.375 C 181.382812 31.375 180.96875 31.496094 180.597656 31.742188 C 180.226562 31.988281 179.9375 32.324219 179.730469 32.746094 C 179.519531 33.171875 179.417969 33.648438 179.417969 34.1875 C 179.417969 34.722656 179.519531 35.203125 179.730469 35.632812 C 179.9375 36.058594 180.226562 36.394531 180.597656 36.640625 C 180.96875 36.886719 181.382812 37.007812 181.847656 37.007812 Z M 193.417969 34.199219 C 193.417969 34.878906 193.269531 35.484375 192.972656 36.023438 C 192.675781 36.566406 192.269531 36.988281 191.765625 37.296875 C 191.257812 37.605469 190.683594 37.757812 190.042969 37.757812 C 189.410156 37.757812 188.839844 37.605469 188.328125 37.296875 C 187.816406 36.988281 187.410156 36.566406 187.113281 36.023438 C 186.8125 35.484375 186.664062 34.878906 186.664062 34.199219 C 186.664062 33.511719 186.8125 32.902344 187.113281 32.367188 C 187.410156 31.832031 187.816406 31.40625 188.328125 31.09375 C 188.839844 30.78125 189.410156 30.625 190.042969 30.625 C 190.683594 30.625 191.257812 30.78125 191.765625 31.09375 C 192.269531 31.40625 192.675781 31.832031 192.972656 32.367188 C 193.269531 32.902344 193.417969 33.511719 193.417969 34.199219 Z M 192.617188 34.199219 C 192.617188 33.65625 192.507812 33.171875 192.285156 32.746094 C 192.0625 32.324219 191.757812 31.988281 191.371094 31.742188 C 190.984375 31.496094 190.539062 31.375 190.042969 31.375 C 189.550781 31.375 189.113281 31.496094 188.726562 31.742188 C 188.339844 31.988281 188.03125 32.324219 187.808594 32.746094 C 187.578125 33.171875 187.464844 33.65625 187.464844 34.199219 C 187.464844 34.742188 187.578125 35.226562 187.808594 35.644531 C 188.03125 36.0625 188.339844 36.394531 188.726562 36.640625 C 189.113281 36.886719 189.550781 37.007812 190.042969 37.007812 C 190.539062 37.007812 190.984375 36.886719 191.371094 36.640625 C 191.757812 36.394531 192.0625 36.0625 192.285156 35.644531 C 192.507812 35.226562 192.617188 34.742188 192.617188 34.199219 Z M 194.675781 36.539062 C 194.601562 36.433594 194.570312 36.328125 194.574219 36.226562 C 194.578125 36.125 194.632812 36.042969 194.742188 35.980469 C 194.8125 35.917969 194.894531 35.890625 194.988281 35.898438 C 195.082031 35.90625 195.167969 35.953125 195.25 36.03125 C 195.488281 36.34375 195.78125 36.597656 196.125 36.789062 C 196.464844 36.980469 196.875 37.078125 197.34375 37.078125 C 197.59375 37.078125 197.839844 37.035156 198.085938 36.949219 C 198.332031 36.863281 198.53125 36.734375 198.695312 36.558594 C 198.855469 36.386719 198.933594 36.167969 198.933594 35.898438 C 198.933594 35.621094 198.855469 35.398438 198.695312 35.230469 C 198.53125 35.058594 198.328125 34.925781 198.074219 34.828125 C 197.820312 34.730469 197.550781 34.644531 197.265625 34.574219 C 196.960938 34.492188 196.667969 34.402344 196.382812 34.296875 C 196.097656 34.195312 195.847656 34.066406 195.628906 33.910156 C 195.410156 33.753906 195.234375 33.566406 195.101562 33.34375 C 194.96875 33.121094 194.902344 32.847656 194.902344 32.527344 C 194.902344 32.152344 195.003906 31.820312 195.207031 31.535156 C 195.414062 31.25 195.691406 31.027344 196.042969 30.867188 C 196.394531 30.707031 196.792969 30.625 197.238281 30.625 C 197.460938 30.625 197.699219 30.65625 197.960938 30.710938 C 198.21875 30.769531 198.472656 30.867188 198.71875 31 C 198.96875 31.132812 199.191406 31.316406 199.386719 31.550781 C 199.46875 31.628906 199.507812 31.71875 199.507812 31.824219 C 199.507812 31.925781 199.464844 32.019531 199.375 32.097656 C 199.304688 32.152344 199.222656 32.179688 199.128906 32.179688 C 199.035156 32.179688 198.957031 32.144531 198.894531 32.070312 C 198.679688 31.832031 198.425781 31.648438 198.132812 31.523438 C 197.839844 31.398438 197.523438 31.335938 197.183594 31.335938 C 196.925781 31.335938 196.683594 31.378906 196.457031 31.460938 C 196.230469 31.546875 196.039062 31.675781 195.890625 31.84375 C 195.738281 32.011719 195.664062 32.234375 195.664062 32.511719 C 195.679688 32.773438 195.773438 32.980469 195.9375 33.140625 C 196.101562 33.300781 196.320312 33.4375 196.59375 33.542969 C 196.863281 33.648438 197.167969 33.75 197.503906 33.835938 C 197.789062 33.910156 198.0625 33.992188 198.328125 34.09375 C 198.589844 34.191406 198.820312 34.3125 199.023438 34.457031 C 199.222656 34.605469 199.382812 34.792969 199.503906 35.015625 C 199.621094 35.238281 199.679688 35.519531 199.679688 35.859375 C 199.679688 36.25 199.574219 36.589844 199.355469 36.875 C 199.136719 37.160156 198.84375 37.378906 198.480469 37.53125 C 198.113281 37.683594 197.710938 37.757812 197.265625 37.757812 C 196.785156 37.757812 196.320312 37.664062 195.871094 37.476562 C 195.421875 37.289062 195.023438 36.976562 194.675781 36.539062 Z M 194.675781 36.539062 "/>
</g>
<g clip-path="url(#clip3)" clip-rule="nonzero">
<path style=" stroke:none;fill-rule:nonzero;fill:rgb(0%,0%,0%);fill-opacity:1;" d="M 12.882812 42.820312 C 5.804688 42.820312 0.0664062 37.066406 0.0664062 29.972656 L 0.0664062 12.84375 C 0.0664062 5.75 5.804688 0 12.882812 0 L 29.972656 0 C 37.050781 0 42.789062 5.75 42.789062 12.84375 L 42.789062 29.972656 C 42.789062 37.066406 37.050781 42.820312 29.972656 42.820312 Z M 12.882812 42.820312 "/>
</g>
<g clip-path="url(#clip4)" clip-rule="nonzero">
<path style=" stroke:none;fill-rule:nonzero;fill:rgb(100%,100%,100%);fill-opacity:1;" d="M 13.972656 33.019531 C 13.757812 33.238281 13.46875 33.398438 13.121094 33.496094 L 10.730469 34.171875 C 10.089844 34.351562 9.503906 34.242188 9.117188 33.871094 C 8.726562 33.496094 8.59375 32.914062 8.742188 32.265625 L 9.320312 29.808594 C 9.410156 29.425781 9.570312 29.117188 9.800781 28.886719 C 10.277344 28.40625 11.121094 28.269531 11.917969 29.042969 L 13.785156 30.851562 C 14.164062 31.21875 14.367188 31.640625 14.371094 32.066406 C 14.375 32.421875 14.230469 32.761719 13.972656 33.019531 Z M 13.972656 33.019531 "/>
</g>
<g clip-path="url(#clip5)" clip-rule="nonzero">
<path style=" stroke:none;fill-rule:nonzero;fill:rgb(100%,100%,100%);fill-opacity:1;" d="M 32.109375 10.664062 C 30.164062 8.710938 27.964844 8 26.863281 9.042969 L 26.855469 9.035156 L 11.574219 24.351562 C 10.9375 24.988281 10.9375 26.027344 11.574219 26.664062 C 12.207031 27.296875 13.242188 27.296875 13.878906 26.664062 L 27.550781 12.957031 L 27.554688 12.960938 C 27.746094 12.796875 28.035156 12.800781 28.21875 12.980469 C 28.398438 13.164062 28.402344 13.453125 28.238281 13.644531 L 28.238281 13.648438 L 15.308594 26.605469 C 14.230469 27.6875 14.230469 29.441406 15.308594 30.523438 C 16.386719 31.601562 18.136719 31.601562 19.214844 30.523438 L 33.636719 16.066406 C 33.679688 16.027344 33.707031 15.980469 33.742188 15.9375 C 34.699219 14.808594 34.019531 12.582031 32.109375 10.664062 Z M 32.109375 10.664062 "/>
</g>
</g>
</svg>
